o Utensil_PenMech.obj
v 0.072500 -0.005000 0.002071
v 0.072500 -0.002071 0.005000
v 0.072500 0.002071 0.005000
v 0.072500 0.005000 0.002071
v 0.072500 0.005000 -0.002071
v 0.072500 0.002071 -0.005000
v 0.072500 -0.002071 -0.005000
v 0.072500 -0.005000 -0.002071
v 0.075000 0.000000 0.000000
v -0.075703 0.000000 0.000000
v -0.072500 -0.001036 0.002500
v -0.072500 -0.002500 0.001036
v -0.072500 0.001036 0.002500
v -0.072500 0.002500 0.001036
v -0.072500 0.002500 -0.001036
v -0.072500 0.001036 -0.002500
v -0.072500 -0.001036 -0.002500
v -0.072500 -0.002500 -0.001036
v -0.075000 -0.000518 0.001250
v -0.075000 0.000518 0.001250
v -0.075000 0.001250 0.000518
v -0.075000 0.001250 -0.000518
v -0.075000 0.000518 -0.001250
v -0.075000 -0.000518 -0.001250
v -0.075000 -0.001250 -0.000518
v -0.075000 -0.001250 0.000518
v -0.072500 -0.001875 0.000777
v -0.072500 -0.000777 0.001875
v -0.072500 0.000777 0.001875
v -0.072500 0.001875 0.000777
v -0.072500 0.001875 -0.000777
v -0.072500 0.000777 -0.001875
v -0.072500 -0.000777 -0.001875
v -0.072500 -0.001875 -0.000777
v -0.057500 -0.005000 0.002071
v -0.057500 -0.002071 0.005000
v -0.057500 0.002071 0.005000
v -0.057500 0.005000 0.002071
v -0.057500 0.005000 -0.002071
v -0.057500 0.002071 -0.005000
v -0.057500 -0.002071 -0.005000
v -0.057500 -0.005000 -0.002071
v 0.075000 -0.002500 0.001036
v 0.075000 -0.001036 0.002500
v 0.075000 0.001036 0.002500
v 0.075000 0.002500 0.001036
v 0.075000 0.002500 -0.001036
v 0.075000 0.001036 -0.002500
v 0.075000 -0.001036 -0.002500
v 0.075000 -0.002500 -0.001036
v 0.017500 -0.005000 0.002071
v 0.017500 -0.002071 0.005000
v 0.017500 0.002071 0.005000
v 0.017500 0.005000 0.002071
v 0.017500 0.005000 -0.002071
v 0.017500 0.002071 -0.005000
v 0.017500 -0.002071 -0.005000
v 0.017500 -0.005000 -0.002071
v 0.057500 -0.005000 0.002071
v 0.057500 -0.002071 0.005000
v 0.057500 0.002071 0.005000
v 0.057500 0.005000 0.002071
v 0.057500 0.005000 -0.002071
v 0.057500 0.002071 -0.005000
v 0.057500 -0.002071 -0.005000
v 0.057500 -0.005000 -0.002071
v 0.042500 -0.002071 0.005000
v 0.042500 0.002071 0.005000
v 0.042500 0.005000 0.002071
v 0.042500 0.005000 -0.002071
v 0.042500 0.002071 -0.005000
v 0.042500 -0.002071 -0.005000
v 0.042500 -0.005000 -0.002071
v 0.042500 -0.005000 0.002071
v 0.042500 0.010000 0.002071
v 0.017500 0.007500 0.002071
v 0.042500 0.010000 -0.002071
v 0.017500 0.007500 -0.002071
v 0.057500 0.007500 0.002071
v 0.057500 0.007500 -0.002071
vn 0.405885 -0.884255 0.230976
vn 0.405872 -0.461950 0.788587
vn 0.405885 0.230976 0.884255
vn 0.405872 0.788588 0.461950
vn 0.405885 0.884255 -0.230976
vn 0.405872 0.461950 -0.788587
vn 0.405885 -0.230976 -0.884255
vn 0.405872 -0.788587 -0.461950
vn 1.000000 0.000000 0.000000
vn -1.000000 0.000000 -0.000000
vn -0.784651 -0.313348 0.534917
vn -0.784653 -0.599810 0.156673
vn -0.784653 0.156673 0.599810
vn -0.784651 0.534917 0.313348
vn -0.784653 0.599810 -0.156673
vn -0.784651 0.313348 -0.534917
vn -0.784653 -0.156673 -0.599810
vn -0.784651 -0.534917 -0.313348
vn -0.564426 -0.235872 0.791067
vn -0.564432 0.392572 0.726157
vn -0.564426 0.791067 0.235872
vn -0.564432 0.726157 -0.392572
vn -0.564426 0.235872 -0.791067
vn -0.564432 -0.392572 -0.726157
vn -0.564426 -0.791067 -0.235872
vn -0.564432 -0.726157 0.392572
vn -0.808387 -0.569543 0.148766
vn -0.808390 -0.297530 0.507918
vn -0.808387 0.148766 0.569543
vn -0.808390 0.507918 0.297530
vn -0.808387 0.569543 -0.148766
vn -0.808390 0.297530 -0.507918
vn -0.808387 -0.148766 -0.569543
vn -0.808390 -0.507918 -0.297530
vn -0.088384 -0.859479 0.503472
vn -0.088388 -0.251736 0.963751
vn -0.088384 0.503472 0.859479
vn -0.088388 0.963751 0.251736
vn -0.088384 0.859479 -0.503472
vn -0.088388 0.251736 -0.963751
vn -0.088384 -0.503472 -0.859479
vn -0.088388 -0.963751 -0.251736
vn 0.901492 -0.373437 0.218761
vn 0.901499 -0.109380 0.418730
vn 0.901492 0.218761 0.373437
vn 0.901499 0.418730 0.109380
vn 0.901492 0.373437 -0.218761
vn 0.901499 0.109380 -0.418730
vn 0.901492 -0.218761 -0.373437
vn 0.901499 -0.418730 -0.109380
vn 0.000000 -0.923880 0.382683
vn 0.000000 -0.382683 0.923880
vn 0.000000 0.382683 0.923880
vn -0.189907 0.592761 0.782668
vn -0.360797 0.743481 -0.563082
vn 0.000000 0.382683 -0.923880
vn 0.000000 -0.382683 -0.923880
vn 0.000000 -0.923880 -0.382683
vn 0.000000 -0.923880 0.382683
vn 0.000000 -0.382683 0.923880
vn 0.000000 0.382683 0.923880
vn 0.360797 0.743481 0.563082
vn 0.189907 0.592761 -0.782668
vn 0.000000 0.382683 -0.923880
vn 0.000000 -0.382683 -0.923880
vn 0.000000 -0.923880 -0.382683
vn 0.000000 -0.382683 0.923880
vn 0.000000 0.382683 0.923880
vn 0.000000 0.382683 0.923880
vn 0.000000 0.382683 -0.923880
vn 0.000000 0.382683 -0.923880
vn 0.000000 -0.382683 -0.923880
vn 0.000000 -0.923880 -0.382683
vn 0.000000 -0.923880 0.382683
vn 0.054256 0.702248 0.709862
vn -0.702590 0.635835 0.319503
vn -0.008189 0.704294 -0.709862
vn -0.441607 0.399649 -0.803284
vn 0.462851 0.392094 0.795004
vn 0.725092 0.614245 -0.311359
vt 0.598169 0.104851
vt 0.575406 0.105122
vt 0.573328 0.823790
vt 0.596006 0.824968
vt 0.590036 0.847324
vt 0.569116 0.846611
vt 0.552715 0.105300
vt 0.550986 0.822838
vt 0.547678 0.846233
vt 0.530059 0.105382
vt 0.528843 0.822156
vt 0.526077 0.845976
vt 0.507403 0.105369
vt 0.506822 0.821761
vt 0.504634 0.845767
vt 0.484713 0.105259
vt 0.484824 0.821696
vt 0.483866 0.845581
vt 0.461952 0.105057
vt 0.462708 0.822019
vt 0.465053 0.845519
vt 0.439075 0.104768
vt 0.440110 0.822766
vt 0.451155 0.846222
vt 0.589460 0.011400
vt 0.619194 0.826305
vt 0.607766 0.847694
vt 0.562215 0.016746
vt 0.563426 0.012180
vt 0.574176 0.010738
vt 0.546881 0.017631
vt 0.548531 0.012893
vt 0.560032 0.012229
vt 0.530965 0.017744
vt 0.532920 0.012926
vt 0.544858 0.012842
vt 0.514831 0.017529
vt 0.516537 0.012891
vt 0.529361 0.012864
vt 0.499136 0.016637
vt 0.501368 0.012012
vt 0.513139 0.012682
vt 0.484173 0.014803
vt 0.486597 0.010516
vt 0.497820 0.011892
vt 0.470335 0.011638
vt 0.473020 0.007858
vt 0.483398 0.010231
vt 0.576548 0.014822
vt 0.577129 0.010498
vt 0.586813 0.007931
vt 0.863392 0.763654
vt 0.856898 0.758118
vt 0.867194 0.761963
vt 0.861932 0.755247
vt 0.871257 0.761063
vt 0.867435 0.753434
vt 0.875417 0.760988
vt 0.873190 0.752752
vt 0.879510 0.761743
vt 0.878965 0.753228
vt 0.883370 0.763297
vt 0.884530 0.754844
vt 0.894157 0.761191
vt 0.886844 0.765588
vt 0.889662 0.757534
vt 0.860002 0.766067
vt 0.852537 0.761934
vt 0.856044 0.742004
vt 0.848494 0.746311
vt 0.864300 0.739284
vt 0.872931 0.738262
vt 0.881594 0.738976
vt 0.889942 0.741399
vt 0.897640 0.745435
vt 0.904382 0.750921
vt 0.841952 0.752034
vt 0.599251 0.518245
vt 0.576383 0.518294
vt 0.553516 0.518333
vt 0.530652 0.518362
vt 0.484946 0.518408
vt 0.462087 0.518420
vt 0.439230 0.518425
vt 0.621047 0.104494
vt 0.576635 0.862167
vt 0.556836 0.862051
vt 0.535817 0.861967
vt 0.514494 0.861874
vt 0.493485 0.861734
vt 0.474204 0.861472
vt 0.461001 0.861016
vt 0.597375 0.861979
vt 0.599584 0.657326
vt 0.576512 0.657296
vt 0.553477 0.657249
vt 0.530468 0.657197
vt 0.960570 0.889749
vt 0.937485 0.889749
vt 0.507805 0.518389
vt 0.484874 0.657015
vt 0.461916 0.656995
vt 0.438953 0.656973
vt 0.622119 0.518186
vt 0.598900 0.741483
vt 0.575828 0.741061
vt 0.552894 0.740718
vt 0.530062 0.740478
vt 0.507483 0.740240
vt 0.484710 0.740145
vt 0.461915 0.740171
vt 0.439060 0.740298
vt 0.622141 0.741956
vt 0.507838 0.657036
vt 0.622698 0.657322
vt 0.974435 0.748333
vt 0.909755 0.890654
vt 0.923620 0.748333
vt 0.937485 0.749719
vt 0.937485 0.735786
vt 0.960571 0.735786
vt 0.960571 0.749719
vt 0.988299 0.890654
vt 0.974314 0.976794
vt 0.960571 0.974504
vt 0.960571 0.988437
vt 0.937485 0.988437
vt 0.937485 0.974504
vt 0.923741 0.976794
g L_COMBO
f 35/1/35 36/2/36 11/28/11 
f 35/1/35 11/28/11 12/49/12 
f 2/3/2 1/4/1 43/5/43 
f 2/3/2 43/5/43 44/6/44 
f 36/2/36 37/7/37 13/31/13 
f 36/2/36 13/31/13 11/28/11 
f 3/8/3 2/3/2 44/6/44 
f 3/8/3 44/6/44 45/9/45 
f 37/7/37 38/10/38 14/34/14 
f 37/7/37 14/34/14 13/31/13 
f 4/11/4 3/8/3 45/9/45 
f 4/11/4 45/9/45 46/12/46 
f 38/10/38 39/13/39 15/37/15 
f 38/10/38 15/37/15 14/34/14 
f 5/14/5 4/11/4 46/12/46 
f 5/14/5 46/12/46 47/15/47 
f 39/13/39 40/16/40 16/40/16 
f 39/13/39 16/40/16 15/37/15 
f 6/17/6 5/14/5 47/15/47 
f 6/17/6 47/15/47 48/18/48 
f 40/16/40 41/19/41 17/43/17 
f 40/16/40 17/43/17 16/40/16 
f 7/20/7 6/17/6 48/18/48 
f 7/20/7 48/18/48 49/21/49 
f 41/19/41 42/22/42 18/46/18 
f 41/19/41 18/46/18 17/43/17 
f 8/23/8 7/20/7 49/21/49 
f 8/23/8 49/21/49 50/24/50 
f 42/85/42 35/1/35 12/49/12 
f 42/85/42 12/49/12 18/25/18 
f 1/4/1 8/26/8 50/27/50 
f 1/4/1 50/27/50 43/5/43 
f 11/28/11 28/29/28 27/30/27 
f 11/28/11 27/30/27 12/49/12 
f 13/31/13 29/32/29 28/33/28 
f 13/31/13 28/33/28 11/28/11 
f 14/34/14 30/35/30 29/36/29 
f 14/34/14 29/36/29 13/31/13 
f 15/37/15 31/38/31 30/39/30 
f 15/37/15 30/39/30 14/34/14 
f 16/40/16 32/41/32 31/42/31 
f 16/40/16 31/42/31 15/37/15 
f 17/43/17 33/44/33 32/45/32 
f 17/43/17 32/45/32 16/40/16 
f 18/46/18 34/47/34 33/48/33 
f 18/46/18 33/48/33 17/43/17 
f 12/49/12 27/50/27 34/51/34 
f 12/49/12 34/51/34 18/25/18 
f 19/55/19 10/52/10 26/53/26 
f 20/57/20 10/54/10 19/55/19 
f 21/59/21 10/56/10 20/57/20 
f 22/61/22 10/58/10 21/59/21 
f 23/63/23 10/60/10 22/61/22 
f 24/66/24 10/62/10 23/63/23 
f 25/64/25 10/65/10 24/66/24 
f 26/53/26 10/67/10 25/68/25 
f 28/69/28 19/55/19 26/53/26 
f 28/69/28 26/53/26 27/70/27 
f 29/71/29 20/57/20 19/55/19 
f 29/71/29 19/55/19 28/69/28 
f 30/72/30 21/59/21 20/57/20 
f 30/72/30 20/57/20 29/71/29 
f 31/73/31 22/61/22 21/59/21 
f 31/73/31 21/59/21 30/72/30 
f 32/74/32 23/63/23 22/61/22 
f 32/74/32 22/61/22 31/73/31 
f 33/75/33 24/66/24 23/63/23 
f 33/75/33 23/63/23 32/74/32 
f 34/76/34 25/64/25 24/66/24 
f 34/76/34 24/66/24 33/75/33 
f 27/70/27 26/53/26 25/68/25 
f 27/70/27 25/68/25 34/77/34 
f 35/1/35 51/78/51 52/79/52 
f 35/1/35 52/79/52 36/2/36 
f 36/2/36 52/79/52 53/80/53 
f 36/2/36 53/80/53 37/7/37 
f 37/7/37 53/80/53 54/81/54 
f 37/7/37 54/81/54 38/10/38 
f 38/10/38 54/81/54 55/100/55 
f 38/10/38 55/100/55 39/13/39 
f 39/13/39 55/100/55 56/82/56 
f 39/13/39 56/82/56 40/16/40 
f 40/16/40 56/82/56 57/83/57 
f 40/16/40 57/83/57 41/19/41 
f 41/19/41 57/83/57 58/84/58 
f 41/19/41 58/84/58 42/22/42 
f 42/85/42 58/104/58 51/78/51 
f 42/85/42 51/78/51 35/1/35 
f 43/5/43 9/86/9 44/6/44 
f 44/6/44 9/87/9 45/9/45 
f 45/9/45 9/88/9 46/12/46 
f 46/12/46 9/89/9 47/15/47 
f 47/15/47 9/90/9 48/18/48 
f 48/18/48 9/91/9 49/21/49 
f 49/21/49 9/92/9 50/24/50 
f 50/27/50 9/93/9 43/5/43 
f 51/78/51 74/94/74 67/95/67 
f 51/78/51 67/95/67 52/79/52 
f 52/79/52 67/95/67 68/96/68 
f 52/79/52 68/96/68 53/80/53 
f 53/80/53 68/96/68 69/97/69 
f 53/80/53 69/97/69 54/81/54 
f 76/122/76 75/98/75 77/99/77 
f 76/122/76 77/99/77 78/119/78 
f 55/100/55 70/114/70 71/101/71 
f 55/100/55 71/101/71 56/82/56 
f 56/82/56 71/101/71 72/102/72 
f 56/82/56 72/102/72 57/83/57 
f 57/83/57 72/102/72 73/103/73 
f 57/83/57 73/103/73 58/84/58 
f 58/104/58 73/115/73 74/94/74 
f 58/104/58 74/94/74 51/78/51 
f 59/105/59 1/4/1 2/3/2 
f 59/105/59 2/3/2 60/106/60 
f 60/106/60 2/3/2 3/8/3 
f 60/106/60 3/8/3 61/107/61 
f 61/107/61 3/8/3 4/11/4 
f 61/107/61 4/11/4 62/108/62 
f 62/108/62 4/11/4 5/14/5 
f 62/108/62 5/14/5 63/109/63 
f 63/109/63 5/14/5 6/17/6 
f 63/109/63 6/17/6 64/110/64 
f 64/110/64 6/17/6 7/20/7 
f 64/110/64 7/20/7 65/111/65 
f 65/111/65 7/20/7 8/23/8 
f 65/111/65 8/23/8 66/112/66 
f 66/113/66 8/26/8 1/4/1 
f 66/113/66 1/4/1 59/105/59 
f 74/94/74 59/105/59 60/106/60 
f 74/94/74 60/106/60 67/95/67 
f 67/95/67 60/106/60 61/107/61 
f 67/95/67 61/107/61 68/96/68 
f 68/96/68 61/107/61 62/108/62 
f 68/96/68 62/108/62 69/97/69 
f 75/98/75 79/125/79 80/128/80 
f 75/98/75 80/128/80 77/99/77 
f 70/114/70 63/109/63 64/110/64 
f 70/114/70 64/110/64 71/101/71 
f 71/101/71 64/110/64 65/111/65 
f 71/101/71 65/111/65 72/102/72 
f 72/102/72 65/111/65 66/112/66 
f 72/102/72 66/112/66 73/103/73 
f 73/115/73 66/113/66 59/105/59 
f 73/115/73 59/105/59 74/94/74 
f 54/116/54 69/123/69 75/98/75 
f 54/116/54 75/98/75 76/122/76 
f 70/117/70 55/118/55 78/119/78 
f 70/117/70 78/119/78 77/99/77 
f 55/120/55 54/121/54 76/122/76 
f 55/120/55 76/122/76 78/119/78 
f 69/123/69 62/124/62 79/125/79 
f 69/123/69 79/125/79 75/98/75 
f 62/126/62 63/127/63 80/128/80 
f 62/126/62 80/128/80 79/125/79 
f 63/129/63 70/117/70 77/99/77 
f 63/129/63 77/99/77 80/128/80 
