o Utensil_PencilMech.obj
v 0.065000 -0.005000 0.002071
v 0.065000 -0.002071 0.005000
v 0.065000 0.002071 0.005000
v 0.065000 0.005000 0.002071
v 0.065000 0.005000 -0.002071
v 0.065000 0.002071 -0.005000
v 0.065000 -0.002071 -0.005000
v 0.065000 -0.005000 -0.002071
v 0.075000 0.000000 0.000000
v -0.075000 0.000000 0.000000
v -0.070000 -0.000777 0.001875
v -0.070000 -0.001875 0.000777
v -0.070000 0.000777 0.001875
v -0.070000 0.001875 0.000777
v -0.070000 0.001875 -0.000777
v -0.070000 0.000777 -0.001875
v -0.070000 -0.000777 -0.001875
v -0.070000 -0.001875 -0.000777
v -0.075000 -0.000518 0.001250
v -0.075000 0.000518 0.001250
v -0.075000 0.001250 0.000518
v -0.075000 0.001250 -0.000518
v -0.075000 0.000518 -0.001250
v -0.075000 -0.000518 -0.001250
v -0.075000 -0.001250 -0.000518
v -0.075000 -0.001250 0.000518
v -0.070000 -0.001250 0.000518
v -0.070000 -0.000518 0.001250
v -0.070000 0.000518 0.001250
v -0.070000 0.001250 0.000518
v -0.070000 0.001250 -0.000518
v -0.070000 0.000518 -0.001250
v -0.070000 -0.000518 -0.001250
v -0.070000 -0.001250 -0.000518
v -0.055000 -0.005000 0.002071
v -0.055000 -0.002071 0.005000
v -0.055000 0.002071 0.005000
v -0.055000 0.005000 0.002071
v -0.055000 0.005000 -0.002071
v -0.055000 0.002071 -0.005000
v -0.055000 -0.002071 -0.005000
v -0.055000 -0.005000 -0.002071
v 0.072500 -0.003750 0.001553
v 0.072500 -0.001553 0.003750
v 0.072500 0.001553 0.003750
v 0.072500 0.003750 0.001553
v 0.072500 0.003750 -0.001553
v 0.072500 0.001553 -0.003750
v 0.072500 -0.001553 -0.003750
v 0.072500 -0.003750 -0.001553
v -0.010000 -0.005000 0.002071
v -0.010000 -0.002071 0.005000
v -0.010000 0.002071 0.005000
v -0.010000 0.005000 0.002071
v -0.010000 0.005000 -0.002071
v -0.010000 0.002071 -0.005000
v -0.010000 -0.002071 -0.005000
v -0.010000 -0.005000 -0.002071
v 0.065000 -0.001553 0.003750
v 0.065000 0.001553 0.003750
v 0.065000 0.003750 0.001553
v 0.065000 0.003750 -0.001553
v 0.065000 0.001553 -0.003750
v 0.065000 -0.001553 -0.003750
v 0.065000 -0.003750 -0.001553
v 0.065000 -0.003750 0.001553
v 0.047500 -0.005000 0.002071
v 0.047500 -0.002071 0.005000
v 0.047500 0.002071 0.005000
v 0.047500 0.005000 0.002071
v 0.047500 0.005000 -0.002071
v 0.047500 0.002071 -0.005000
v 0.047500 -0.002071 -0.005000
v 0.047500 -0.005000 -0.002071
v 0.022500 -0.002071 0.005000
v 0.022500 0.002071 0.005000
v 0.022500 0.005000 0.002071
v 0.022500 0.005000 -0.002071
v 0.022500 0.002071 -0.005000
v 0.022500 -0.002071 -0.005000
v 0.022500 -0.005000 -0.002071
v 0.022500 -0.005000 0.002071
v 0.063000 0.007500 0.002071
v 0.047500 0.007500 0.002071
v 0.063000 0.007500 -0.002071
v 0.047500 0.007500 -0.002071
v 0.024500 0.007500 0.002071
v 0.024500 0.007500 -0.002071
v 0.075000 -0.001875 0.000777
v 0.075000 -0.000777 0.001875
v 0.075000 0.000777 0.001875
v 0.075000 0.001875 0.000777
v 0.075000 0.001875 -0.000777
v 0.075000 0.000777 -0.001875
v 0.075000 -0.000777 -0.001875
v 0.075000 -0.001875 -0.000777
vn 0.731307 -0.659908 0.172371
vn 0.731307 -0.344741 0.588510
vn 0.731307 0.172371 0.659908
vn 0.785426 0.458611 0.415672
vn 0.781647 0.275333 -0.559660
vn 0.731307 0.344741 -0.588510
vn 0.731307 -0.172371 -0.659908
vn 0.731307 -0.588510 -0.344741
vn 1.000000 0.000000 0.000000
vn -1.000000 0.000000 0.000000
vn -0.796784 -0.305425 0.521392
vn -0.796786 -0.584646 0.152712
vn -0.796786 0.152712 0.584646
vn -0.796784 0.521392 0.305425
vn -0.796786 0.584646 -0.152712
vn -0.796784 0.305425 -0.521392
vn -0.796786 -0.152712 -0.584646
vn -0.796784 -0.521392 -0.305425
vn -0.581522 -0.205599 0.787122
vn -0.581522 0.411198 0.701960
vn -0.581522 0.787122 0.205599
vn -0.581522 0.701960 -0.411198
vn -0.581522 0.205599 -0.787122
vn -0.581522 -0.411198 -0.701960
vn -0.581522 -0.787122 -0.205599
vn -0.581522 -0.701960 0.411198
vn -0.731307 -0.659908 0.172371
vn -0.731307 -0.344741 0.588510
vn -0.731307 0.172371 0.659908
vn -0.731307 0.588510 0.344741
vn -0.731307 0.659908 -0.172371
vn -0.731307 0.344741 -0.588510
vn -0.731307 -0.172371 -0.659908
vn -0.731307 -0.588510 -0.344741
vn -0.109828 -0.857636 0.502392
vn -0.109831 -0.251196 0.961685
vn -0.109828 0.502392 0.857636
vn -0.109831 0.961685 0.251196
vn -0.109828 0.857636 -0.502392
vn -0.109831 0.251196 -0.961685
vn -0.109828 -0.502392 -0.857636
vn -0.109831 -0.961685 -0.251196
vn 0.339308 -0.874486 0.346617
vn 0.339328 -0.373271 0.863438
vn 0.339308 0.346617 0.874486
vn 0.339328 0.863438 0.373271
vn 0.339308 0.874486 -0.346617
vn 0.339328 0.373271 -0.863438
vn 0.339308 -0.346617 -0.874486
vn 0.339328 -0.863438 -0.373271
vn 0.000000 -0.923880 0.382683
vn 0.000000 -0.382683 0.923880
vn 0.000000 0.382683 0.923880
vn 0.000000 0.923880 0.382683
vn 0.000000 0.923880 -0.382683
vn 0.000000 0.382683 -0.923880
vn 0.000000 -0.382683 -0.923880
vn 0.000000 -0.923880 -0.382683
vn 0.731307 -0.172371 0.659908
vn 0.731307 0.344741 0.588510
vn 0.731307 0.659908 0.172371
vn 0.731307 0.588510 -0.344741
vn 0.731307 0.172371 -0.659908
vn 0.731307 -0.344741 -0.588510
vn 0.731307 -0.659908 -0.172371
vn 0.731307 -0.588510 0.344741
vn 0.000000 -0.923880 0.382683
vn 0.000000 -0.382683 0.923880
vn 0.000000 0.382683 0.923880
vn 0.000000 0.382683 0.923880
vn 0.000000 0.382683 -0.923880
vn 0.000000 0.382683 -0.923880
vn 0.000000 -0.382683 -0.923880
vn 0.000000 -0.923880 -0.382683
vn 0.000000 -0.382683 0.923880
vn 0.000000 0.382683 0.923880
vn -0.138850 0.666095 0.732829
vn -0.243825 0.838496 -0.487313
vn 0.000000 0.382683 -0.923880
vn 0.000000 -0.382683 -0.923880
vn 0.000000 -0.923880 -0.382683
vn 0.000000 -0.923880 0.382683
vn 0.290020 0.603422 0.742813
vn 0.000000 0.707107 0.707107
vn 0.417429 0.868511 -0.267285
vn 0.000000 0.707107 -0.707107
vn -0.417428 0.868512 0.267285
vn -0.290020 0.603422 -0.742813
vn 0.861620 -0.491076 0.128279
vn 0.861607 -0.256561 0.437961
vn 0.861620 0.128279 0.491076
vn 0.861607 0.437961 0.256561
vn 0.861620 0.491076 -0.128279
vn 0.861607 0.256561 -0.437961
vn 0.861620 -0.128279 -0.491076
vn 0.861607 -0.437961 -0.256561
vt 0.791329 0.103244
vt 0.772565 0.011113
vt 0.795088 0.769996
vt 0.820150 0.770387
vt 0.816899 0.777901
vt 0.798103 0.777608
vt 0.768941 0.104178
vt 0.770135 0.769605
vt 0.791851 0.777477
vt 0.773136 0.777185
vt 0.746795 0.104780
vt 0.745236 0.769221
vt 0.766906 0.777071
vt 0.748232 0.776783
vt 0.724769 0.105040
vt 0.723399 0.769079
vt 0.745236 0.769221
vt 0.741715 0.776419
vt 0.725970 0.776322
vt 0.702751 0.104955
vt 0.700287 0.768912
vt 0.723399 0.769079
vt 0.720568 0.776033
vt 0.703126 0.775907
vt 0.680627 0.104525
vt 0.677175 0.768745
vt 0.697348 0.775866
vt 0.680014 0.775741
vt 0.658274 0.103753
vt 0.654064 0.768578
vt 0.674236 0.775699
vt 0.656902 0.775574
vt 0.635552 0.102648
vt 0.630952 0.768411
vt 0.651124 0.775532
vt 0.633791 0.775407
vt 0.763064 0.014520
vt 0.763277 0.010129
vt 0.769610 0.007858
vt 0.751674 0.016534
vt 0.752763 0.011615
vt 0.760356 0.010272
vt 0.738892 0.017924
vt 0.740249 0.012578
vt 0.749225 0.011765
vt 0.725650 0.018538
vt 0.727610 0.013108
vt 0.736438 0.012698
vt 0.712261 0.018378
vt 0.714556 0.013018
vt 0.723483 0.013124
vt 0.699215 0.017414
vt 0.701778 0.012325
vt 0.710475 0.012969
vt 0.687025 0.015492
vt 0.689830 0.010908
vt 0.697957 0.012188
vt 0.676245 0.012328
vt 0.679315 0.008517
vt 0.686502 0.010627
vt 0.326790 0.926977
vt 0.323906 0.919977
vt 0.332585 0.926988
vt 0.329701 0.919988
vt 0.338380 0.926998
vt 0.335495 0.919998
vt 0.344174 0.927009
vt 0.341290 0.920009
vt 0.349970 0.927019
vt 0.347085 0.920019
vt 0.355764 0.927030
vt 0.352880 0.920030
vt 0.364469 0.920051
vt 0.361559 0.927040
vt 0.358674 0.920040
vt 0.320996 0.926967
vt 0.318111 0.919967
vt 0.329751 0.892008
vt 0.323957 0.891998
vt 0.335546 0.892019
vt 0.341341 0.892029
vt 0.347135 0.892040
vt 0.352930 0.892050
vt 0.358725 0.892061
vt 0.364519 0.892071
vt 0.318162 0.891987
vt 0.814088 0.101986
vt 0.794273 0.349936
vt 0.771337 0.350130
vt 0.748416 0.350265
vt 0.725512 0.350339
vt 0.702618 0.350352
vt 0.679731 0.350309
vt 0.656846 0.350214
vt 0.633960 0.350077
vt 0.978746 0.686948
vt 0.974405 0.704436
vt 0.965713 0.704439
vt 0.961361 0.686953
vt 0.957021 0.704442
vt 0.948328 0.704445
vt 0.943977 0.686959
vt 0.939636 0.704447
vt 0.930944 0.704450
vt 0.926593 0.686964
vt 0.922253 0.704453
vt 0.913561 0.704455
vt 0.909209 0.686970
vt 0.904868 0.704458
vt 0.896176 0.704461
vt 0.891825 0.686975
vt 0.887484 0.704464
vt 0.878792 0.704466
vt 0.874440 0.686981
vt 0.870100 0.704469
vt 0.861408 0.704472
vt 0.857056 0.686986
vt 0.852716 0.704475
vt 0.844024 0.704478
vt 0.839672 0.686992
vt 0.817222 0.349688
vt 0.795443 0.532203
vt 0.771847 0.532220
vt 0.748274 0.532099
vt 0.701983 0.531773
vt 0.678870 0.531611
vt 0.655765 0.531448
vt 0.632664 0.531283
vt 0.978732 0.644979
vt 0.961348 0.644984
vt 0.943964 0.644990
vt 0.926580 0.644995
vt 0.909196 0.645001
vt 0.891811 0.645006
vt 0.874427 0.645012
vt 0.857043 0.645017
vt 0.839659 0.645023
vt 0.820269 0.672029
vt 0.795763 0.672078
vt 0.771295 0.671988
vt 0.746860 0.671768
vt 0.514214 0.950447
vt 0.514187 0.973626
vt 0.724104 0.671435
vt 0.700991 0.671268
vt 0.677880 0.671101
vt 0.654768 0.670935
vt 0.631657 0.670768
vt 0.819053 0.532050
vt 0.725110 0.531937
vt 0.514229 0.936457
vt 0.612157 0.936568
vt 0.600950 0.950545
vt 0.618865 0.950565
vt 0.618839 0.973744
vt 0.600924 0.973724
vt 0.612099 0.987726
vt 0.374332 0.936299
vt 0.514172 0.987616
vt 0.374274 0.987457
vt 0.385482 0.973480
vt 0.367566 0.973460
vt 0.367593 0.950281
vt 0.385508 0.950301
vt 0.970062 0.714930
vt 0.952678 0.714935
vt 0.935293 0.714941
vt 0.917911 0.714946
vt 0.900525 0.714952
vt 0.883142 0.714957
vt 0.865757 0.714963
vt 0.848373 0.714969
g L_COMBO
f 35/87/35 36/1/36 11/37/11 
f 35/87/35 11/37/11 12/2/12 
f 2/3/2 1/4/1 66/5/66 
f 2/3/2 66/5/66 59/6/59 
f 36/1/36 37/7/37 13/40/13 
f 36/1/36 13/40/13 11/37/11 
f 3/8/3 2/3/2 59/9/59 
f 3/8/3 59/9/59 60/10/60 
f 37/7/37 38/11/38 14/43/14 
f 37/7/37 14/43/14 13/40/13 
f 4/12/4 3/8/3 60/13/60 
f 4/12/4 60/13/60 61/14/61 
f 38/11/38 39/15/39 15/46/15 
f 38/11/38 15/46/15 14/43/14 
f 5/16/5 4/17/4 61/18/61 
f 5/16/5 61/18/61 62/19/62 
f 39/15/39 40/20/40 16/49/16 
f 39/15/39 16/49/16 15/46/15 
f 6/21/6 5/22/5 62/23/62 
f 6/21/6 62/23/62 63/24/63 
f 40/20/40 41/25/41 17/52/17 
f 40/20/40 17/52/17 16/49/16 
f 7/26/7 6/21/6 63/27/63 
f 7/26/7 63/27/63 64/28/64 
f 41/25/41 42/29/42 18/55/18 
f 41/25/41 18/55/18 17/52/17 
f 8/30/8 7/26/7 64/31/64 
f 8/30/8 64/31/64 65/32/65 
f 42/29/42 35/33/35 12/58/12 
f 42/29/42 12/58/12 18/55/18 
f 1/34/1 8/30/8 65/35/65 
f 1/34/1 65/35/65 66/36/66 
f 11/37/11 28/38/28 27/39/27 
f 11/37/11 27/39/27 12/2/12 
f 13/40/13 29/41/29 28/42/28 
f 13/40/13 28/42/28 11/37/11 
f 14/43/14 30/44/30 29/45/29 
f 14/43/14 29/45/29 13/40/13 
f 15/46/15 31/47/31 30/48/30 
f 15/46/15 30/48/30 14/43/14 
f 16/49/16 32/50/32 31/51/31 
f 16/49/16 31/51/31 15/46/15 
f 17/52/17 33/53/33 32/54/32 
f 17/52/17 32/54/32 16/49/16 
f 18/55/18 34/56/34 33/57/33 
f 18/55/18 33/57/33 17/52/17 
f 12/58/12 27/59/27 34/60/34 
f 12/58/12 34/60/34 18/55/18 
f 19/64/19 10/61/10 26/62/26 
f 20/66/20 10/63/10 19/64/19 
f 21/68/21 10/65/10 20/66/20 
f 22/70/22 10/67/10 21/68/21 
f 23/72/23 10/69/10 22/70/22 
f 24/75/24 10/71/10 23/72/23 
f 25/73/25 10/74/10 24/75/24 
f 26/62/26 10/76/10 25/77/25 
f 28/78/28 19/64/19 26/62/26 
f 28/78/28 26/62/26 27/79/27 
f 29/80/29 20/66/20 19/64/19 
f 29/80/29 19/64/19 28/78/28 
f 30/81/30 21/68/21 20/66/20 
f 30/81/30 20/66/20 29/80/29 
f 31/82/31 22/70/22 21/68/21 
f 31/82/31 21/68/21 30/81/30 
f 32/83/32 23/72/23 22/70/22 
f 32/83/32 22/70/22 31/82/31 
f 33/84/33 24/75/24 23/72/23 
f 33/84/33 23/72/23 32/83/32 
f 34/85/34 25/73/25 24/75/24 
f 34/85/34 24/75/24 33/84/33 
f 27/79/27 26/62/26 25/77/25 
f 27/79/27 25/77/25 34/86/34 
f 35/87/35 51/121/51 52/88/52 
f 35/87/35 52/88/52 36/1/36 
f 36/1/36 52/88/52 53/89/53 
f 36/1/36 53/89/53 37/7/37 
f 37/7/37 53/89/53 54/90/54 
f 37/7/37 54/90/54 38/11/38 
f 38/11/38 54/90/54 55/91/55 
f 38/11/38 55/91/55 39/15/39 
f 39/15/39 55/91/55 56/92/56 
f 39/15/39 56/92/56 40/20/40 
f 40/20/40 56/92/56 57/93/57 
f 40/20/40 57/93/57 41/25/41 
f 41/25/41 57/93/57 58/94/58 
f 41/25/41 58/94/58 42/29/42 
f 42/29/42 58/94/58 51/95/51 
f 42/29/42 51/95/51 35/33/35 
f 43/96/43 89/97/89 90/98/90 
f 43/96/43 90/98/90 44/99/44 
f 44/99/44 90/100/90 91/101/91 
f 44/99/44 91/101/91 45/102/45 
f 45/102/45 91/103/91 92/104/92 
f 45/102/45 92/104/92 46/105/46 
f 46/105/46 92/106/92 93/107/93 
f 46/105/46 93/107/93 47/108/47 
f 47/108/47 93/109/93 94/110/94 
f 47/108/47 94/110/94 48/111/48 
f 48/111/48 94/112/94 95/113/95 
f 48/111/48 95/113/95 49/114/49 
f 49/114/49 95/115/95 96/116/96 
f 49/114/49 96/116/96 50/117/50 
f 50/117/50 96/118/96 89/119/89 
f 50/117/50 89/119/89 43/120/43 
f 51/121/51 82/149/82 75/122/75 
f 51/121/51 75/122/75 52/88/52 
f 52/88/52 75/122/75 76/123/76 
f 52/88/52 76/123/76 53/89/53 
f 53/89/53 76/123/76 77/124/77 
f 53/89/53 77/124/77 54/90/54 
f 54/90/54 77/124/77 78/150/78 
f 54/90/54 78/150/78 55/91/55 
f 55/91/55 78/150/78 79/125/79 
f 55/91/55 79/125/79 56/92/56 
f 56/92/56 79/125/79 80/126/80 
f 56/92/56 80/126/80 57/93/57 
f 57/93/57 80/126/80 81/127/81 
f 57/93/57 81/127/81 58/94/58 
f 58/94/58 81/127/81 82/128/82 
f 58/94/58 82/128/82 51/95/51 
f 66/129/66 43/96/43 44/99/44 
f 66/129/66 44/99/44 59/130/59 
f 59/130/59 44/99/44 45/102/45 
f 59/130/59 45/102/45 60/131/60 
f 60/131/60 45/102/45 46/105/46 
f 60/131/60 46/105/46 61/132/61 
f 61/132/61 46/105/46 47/108/47 
f 61/132/61 47/108/47 62/133/62 
f 62/133/62 47/108/47 48/111/48 
f 62/133/62 48/111/48 63/134/63 
f 63/134/63 48/111/48 49/114/49 
f 63/134/63 49/114/49 64/135/64 
f 64/135/64 49/114/49 50/117/50 
f 64/135/64 50/117/50 65/136/65 
f 65/136/65 50/117/50 43/120/43 
f 65/136/65 43/120/43 66/137/66 
f 67/138/67 1/4/1 2/3/2 
f 67/138/67 2/3/2 68/139/68 
f 68/139/68 2/3/2 3/8/3 
f 68/139/68 3/8/3 69/140/69 
f 69/140/69 3/8/3 4/12/4 
f 69/140/69 4/12/4 70/141/70 
f 84/142/84 83/153/83 85/156/85 
f 84/142/84 85/156/85 86/143/86 
f 71/144/71 5/22/5 6/21/6 
f 71/144/71 6/21/6 72/145/72 
f 72/145/72 6/21/6 7/26/7 
f 72/145/72 7/26/7 73/146/73 
f 73/146/73 7/26/7 8/30/8 
f 73/146/73 8/30/8 74/147/74 
f 74/147/74 8/30/8 1/34/1 
f 74/147/74 1/34/1 67/148/67 
f 82/149/82 67/138/67 68/139/68 
f 82/149/82 68/139/68 75/122/75 
f 75/122/75 68/139/68 69/140/69 
f 75/122/75 69/140/69 76/123/76 
f 76/123/76 69/140/69 70/141/70 
f 76/123/76 70/141/70 77/124/77 
f 87/164/87 84/142/84 86/143/86 
f 87/164/87 86/143/86 88/161/88 
f 78/150/78 71/144/71 72/145/72 
f 78/150/78 72/145/72 79/125/79 
f 79/125/79 72/145/72 73/146/73 
f 79/125/79 73/146/73 80/126/80 
f 80/126/80 73/146/73 74/147/74 
f 80/126/80 74/147/74 81/127/81 
f 81/127/81 74/147/74 67/148/67 
f 81/127/81 67/148/67 82/128/82 
f 70/151/70 4/152/4 83/153/83 
f 70/151/70 83/153/83 84/142/84 
f 4/154/4 5/155/5 85/156/85 
f 4/154/4 85/156/85 83/153/83 
f 5/157/5 71/159/71 86/143/86 
f 5/157/5 86/143/86 85/156/85 
f 77/158/77 70/151/70 84/142/84 
f 77/158/77 84/142/84 87/164/87 
f 71/159/71 78/160/78 88/161/88 
f 71/159/71 88/161/88 86/143/86 
f 78/162/78 77/163/77 87/164/87 
f 78/162/78 87/164/87 88/161/88 
f 89/97/89 9/165/9 90/98/90 
f 90/100/90 9/166/9 91/101/91 
f 91/103/91 9/167/9 92/104/92 
f 92/106/92 9/168/9 93/107/93 
f 93/109/93 9/169/9 94/110/94 
f 94/112/94 9/170/9 95/113/95 
f 95/115/95 9/171/9 96/116/96 
f 96/118/96 9/172/9 89/119/89 
