o Utensil_Pen.obj
v 0.072500 -0.004375 0.001812
v 0.072500 -0.001812 0.004375
v 0.072500 0.001812 0.004375
v 0.072500 0.004375 0.001812
v 0.072500 0.004375 -0.001812
v 0.072500 0.001812 -0.004375
v 0.072500 -0.001812 -0.004375
v 0.072500 -0.004375 -0.001812
v 0.075000 0.000000 0.000000
v 0.075000 -0.002188 0.000906
v 0.075000 -0.000906 0.002188
v 0.075000 0.000906 0.002188
v 0.075000 0.002187 0.000906
v 0.075000 0.002187 -0.000906
v 0.075000 0.000906 -0.002187
v 0.075000 -0.000906 -0.002187
v 0.075000 -0.002188 -0.000906
v 0.000000 -0.004375 0.001812
v 0.000000 -0.001812 0.004375
v 0.000000 0.001812 0.004375
v 0.000000 0.004375 0.001812
v 0.000000 0.004375 -0.001812
v 0.000000 0.001812 -0.004375
v 0.000000 -0.001812 -0.004375
v 0.000000 -0.004375 -0.001812
v -0.072500 -0.005625 0.002330
v -0.072500 -0.002330 0.005625
v -0.072500 0.002330 0.005625
v -0.072500 0.005625 0.002330
v -0.072500 0.005625 -0.002330
v -0.072500 0.002330 -0.005625
v -0.072500 -0.002330 -0.005625
v -0.072500 -0.005625 -0.002330
v -0.075000 0.000000 0.000000
v -0.075000 -0.003750 0.001553
v -0.075000 -0.001553 0.003750
v -0.075000 0.001553 0.003750
v -0.075000 0.003750 0.001553
v -0.075000 0.003750 -0.001553
v -0.075000 0.001553 -0.003750
v -0.075000 -0.001553 -0.003750
v -0.075000 -0.003750 -0.001553
v -0.033000 -0.005625 0.002330
v -0.033000 -0.002330 0.005625
v -0.033000 0.002330 0.005625
v -0.033000 0.005625 0.002330
v -0.033000 0.005625 -0.002330
v -0.033000 0.002330 -0.005625
v -0.033000 -0.002330 -0.005625
v -0.033000 -0.005625 -0.002330
v -0.032500 -0.004375 0.001812
v -0.032500 -0.001812 0.004375
v -0.032500 0.001812 0.004375
v -0.032500 0.004375 0.001812
v -0.032500 0.004375 -0.001812
v -0.032500 0.001812 -0.004375
v -0.032500 -0.001812 -0.004375
v -0.032500 -0.004375 -0.001812
v -0.007500 -0.001812 0.004375
v -0.007500 0.001812 0.004375
v -0.007500 0.004375 0.001812
v -0.007500 0.004375 -0.001812
v -0.007500 0.001812 -0.004375
v -0.007500 -0.001812 -0.004375
v -0.007500 -0.004375 -0.001812
v -0.007500 -0.004375 0.001812
v -0.008000 0.005625 -0.002330
v -0.008000 0.005625 0.002330
vn 0.373632 -0.897466 0.234421
vn 0.373635 -0.468842 0.800365
vn 0.373632 0.234421 0.897466
vn 0.373706 0.800364 0.468787
vn 0.373732 0.897426 -0.234414
vn 0.373724 0.468827 -0.800332
vn 0.373732 -0.234414 -0.897426
vn 0.373653 -0.800333 -0.468882
vn 1.000000 0.000000 0.000000
vn 0.883670 -0.403913 0.236605
vn 0.883668 -0.118303 0.452919
vn 0.883700 0.236624 0.403837
vn 0.883719 0.452840 0.118223
vn 0.883721 0.403828 -0.236561
vn 0.883725 0.118280 -0.452813
vn 0.883691 -0.236543 -0.403904
vn 0.883675 -0.452891 -0.118360
vn 0.000000 -0.923880 0.382683
vn 0.000000 -0.382683 0.923880
vn 0.000000 0.382683 0.923880
vn 0.000000 0.923880 0.382683
vn 0.000000 0.923880 -0.382683
vn 0.000000 0.382683 -0.923880
vn 0.000000 -0.382683 -0.923880
vn 0.000000 -0.923880 -0.382683
vn -0.336577 -0.812515 0.475956
vn -0.336567 -0.237977 0.911093
vn -0.336577 0.475956 0.812515
vn -0.336567 0.911093 0.237977
vn -0.336577 0.812515 -0.475956
vn -0.336567 0.237977 -0.911093
vn -0.336577 -0.475956 -0.812515
vn -0.336567 -0.911093 -0.237977
vn -1.000000 0.000000 0.000000
vn -0.861638 -0.491050 0.128260
vn -0.861645 -0.256518 0.437912
vn -0.861638 0.128260 0.491050
vn -0.861645 0.437912 0.256518
vn -0.861638 0.491050 -0.128260
vn -0.861644 0.256518 -0.437912
vn -0.861638 -0.128260 -0.491050
vn -0.861645 -0.437912 -0.256518
vn 0.587466 -0.782981 0.204513
vn 0.587473 -0.409028 0.698264
vn 0.587466 0.204513 0.782981
vn 0.326197 0.800400 0.502947
vn 0.212646 0.733796 -0.645232
vn 0.587473 0.409028 -0.698264
vn 0.587466 -0.204513 -0.782981
vn 0.587473 -0.698264 -0.409028
vn 0.587473 -0.698264 0.409028
vn 0.587466 -0.204513 0.782981
vn 0.587472 0.409028 0.698264
vn 0.312267 0.068618 0.947513
vn 0.495079 0.414982 -0.763339
vn 0.587466 0.204513 -0.782981
vn 0.587472 -0.409028 -0.698264
vn 0.587466 -0.782981 -0.204513
vn 0.000000 -0.382683 0.923880
vn 0.000000 0.382683 0.923880
vn 0.324224 0.782429 0.531680
vn 0.189321 0.556061 -0.809292
vn 0.000000 0.382683 -0.923880
vn 0.000000 -0.382683 -0.923880
vn 0.000000 -0.923880 -0.382683
vn 0.000000 -0.923880 0.382683
vn 0.591042 0.751139 -0.294039
vn 0.430907 0.281120 0.857491
vt 0.970043 0.590662
vt 0.990098 0.590666
vt 0.980423 0.612736
vt 0.965319 0.611533
vt 0.949999 0.590669
vt 0.947240 0.611980
vt 0.929960 0.590681
vt 0.927739 0.612652
vt 0.909920 0.590696
vt 0.907838 0.612441
vt 0.889881 0.590714
vt 0.888098 0.612064
vt 0.869842 0.590736
vt 0.869069 0.611427
vt 0.849800 0.590764
vt 0.852027 0.610932
vt 0.829745 0.590803
vt 0.839493 0.612831
vt 0.971419 0.628067
vt 0.956819 0.628146
vt 0.938301 0.628201
vt 0.917534 0.628219
vt 0.897513 0.628207
vt 0.877815 0.628173
vt 0.859950 0.628101
vt 0.848052 0.627985
vt 0.989812 0.189456
vt 0.969750 0.189467
vt 0.949685 0.189481
vt 0.929621 0.189499
vt 0.909559 0.189520
vt 0.889500 0.189542
vt 0.869443 0.189564
vt 0.849387 0.189586
vt 0.878384 0.966878
vt 0.879544 0.986983
vt 0.859761 0.993438
vt 0.859716 0.967724
vt 0.878933 0.942854
vt 0.859708 0.942050
vt 0.879321 0.917512
vt 0.859724 0.916379
vt 0.879530 0.891968
vt 0.859756 0.890702
vt 0.879940 0.866520
vt 0.859797 0.865017
vt 0.879550 0.839816
vt 0.859833 0.839324
vt 0.878807 0.815745
vt 0.859882 0.813641
vt 0.879640 0.794311
vt 0.859968 0.787923
vt 0.899400 0.975215
vt 0.899222 0.955677
vt 0.899134 0.930757
vt 0.899109 0.905050
vt 0.899098 0.879852
vt 0.898917 0.852166
vt 0.899194 0.826682
vt 0.899322 0.806261
vt 0.970165 0.147401
vt 0.990749 0.147392
vt 0.949603 0.147443
vt 0.889143 0.148015
vt 0.909102 0.147899
vt 0.869177 0.148122
vt 0.849211 0.148224
vt 0.829332 0.189608
vt 0.641755 0.967678
vt 0.641738 0.993394
vt 0.641758 0.941975
vt 0.641726 0.916264
vt 0.641735 0.890447
vt 0.641817 0.864733
vt 0.641861 0.839027
vt 0.641898 0.813318
vt 0.641925 0.787599
vt 0.633505 0.989981
vt 0.634023 0.966847
vt 0.635007 0.941720
vt 0.634705 0.883035
vt 0.634906 0.864259
vt 0.633847 0.838749
vt 0.634101 0.813296
vt 0.633683 0.790947
vt 0.990529 0.007858
vt 0.969899 0.007858
vt 0.929039 0.147521
vt 0.928640 0.007858
vt 0.949268 0.007858
vt 0.908372 0.007858
vt 0.888409 0.007858
vt 0.868447 0.007858
vt 0.829246 0.148323
vt 0.828523 0.007858
vt 0.848485 0.007858
vt 0.499352 0.882938
vt 0.634743 0.923705
vt 0.499381 0.924049
vt 0.502151 0.916497
vt 0.493343 0.913797
vt 0.494309 0.893080
vt 0.502142 0.890479
g L_COMBO
f 2/1/2 1/2/1 10/3/10 
f 2/1/2 10/3/10 11/4/11 
f 3/5/3 2/1/2 11/4/11 
f 3/5/3 11/4/11 12/6/12 
f 4/7/4 3/5/3 12/6/12 
f 4/7/4 12/6/12 13/8/13 
f 5/9/5 4/7/4 13/8/13 
f 5/9/5 13/8/13 14/10/14 
f 6/11/6 5/9/5 14/10/14 
f 6/11/6 14/10/14 15/12/15 
f 7/13/7 6/11/6 15/12/15 
f 7/13/7 15/12/15 16/14/16 
f 8/15/8 7/13/7 16/14/16 
f 8/15/8 16/14/16 17/16/17 
f 1/17/1 8/15/8 17/16/17 
f 1/17/1 17/16/17 10/18/10 
f 10/3/10 9/19/9 11/4/11 
f 11/4/11 9/20/9 12/6/12 
f 12/6/12 9/21/9 13/8/13 
f 13/8/13 9/22/9 14/10/14 
f 14/10/14 9/23/9 15/12/15 
f 15/12/15 9/24/9 16/14/16 
f 16/14/16 9/25/9 17/16/17 
f 17/16/17 9/26/9 10/18/10 
f 18/27/18 1/2/1 2/1/2 
f 18/27/18 2/1/2 19/28/19 
f 19/28/19 2/1/2 3/5/3 
f 19/28/19 3/5/3 20/29/20 
f 20/29/20 3/5/3 4/7/4 
f 20/29/20 4/7/4 21/30/21 
f 21/30/21 4/7/4 5/9/5 
f 21/30/21 5/9/5 22/31/22 
f 22/31/22 5/9/5 6/11/6 
f 22/31/22 6/11/6 23/32/23 
f 23/32/23 6/11/6 7/13/7 
f 23/32/23 7/13/7 24/33/24 
f 24/33/24 7/13/7 8/15/8 
f 24/33/24 8/15/8 25/34/25 
f 25/34/25 8/15/8 1/17/1 
f 25/34/25 1/17/1 18/68/18 
f 36/35/36 35/36/35 26/37/26 
f 36/35/36 26/37/26 27/38/27 
f 37/39/37 36/35/36 27/38/27 
f 37/39/37 27/38/27 28/40/28 
f 38/41/38 37/39/37 28/40/28 
f 38/41/38 28/40/28 29/42/29 
f 39/43/39 38/41/38 29/42/29 
f 39/43/39 29/42/29 30/44/30 
f 40/45/40 39/43/39 30/44/30 
f 40/45/40 30/44/30 31/46/31 
f 41/47/41 40/45/40 31/46/31 
f 41/47/41 31/46/31 32/48/32 
f 42/49/42 41/47/41 32/48/32 
f 42/49/42 32/48/32 33/50/33 
f 35/51/35 42/49/42 33/50/33 
f 35/51/35 33/50/33 26/52/26 
f 36/35/36 34/53/34 35/36/35 
f 37/39/37 34/54/34 36/35/36 
f 38/41/38 34/55/34 37/39/37 
f 39/43/39 34/56/34 38/41/38 
f 40/45/40 34/57/34 39/43/39 
f 41/47/41 34/58/34 40/45/40 
f 42/49/42 34/59/34 41/47/41 
f 35/51/35 34/60/34 42/49/42 
f 19/28/19 59/61/59 66/62/66 
f 19/28/19 66/62/66 18/27/18 
f 20/29/20 60/63/60 59/61/59 
f 20/29/20 59/61/59 19/28/19 
f 21/30/21 61/88/61 60/63/60 
f 21/30/21 60/63/60 20/29/20 
f 22/31/22 62/65/62 61/88/61 
f 22/31/22 61/88/61 21/30/21 
f 23/32/23 63/64/63 62/65/62 
f 23/32/23 62/65/62 22/31/22 
f 24/33/24 64/66/64 63/64/63 
f 24/33/24 63/64/63 23/32/23 
f 25/34/25 65/67/65 64/66/64 
f 25/34/25 64/66/64 24/33/24 
f 18/68/18 66/94/66 65/67/65 
f 18/68/18 65/67/65 25/34/25 
f 44/69/44 27/38/27 26/37/26 
f 44/69/44 26/37/26 43/70/43 
f 45/71/45 28/40/28 27/38/27 
f 45/71/45 27/38/27 44/69/44 
f 46/72/46 29/42/29 28/40/28 
f 46/72/46 28/40/28 45/71/45 
f 47/73/47 30/44/30 29/42/29 
f 47/73/47 29/42/29 46/72/46 
f 48/74/48 31/46/31 30/44/30 
f 48/74/48 30/44/30 47/73/47 
f 49/75/49 32/48/32 31/46/31 
f 49/75/49 31/46/31 48/74/48 
f 50/76/50 33/50/33 32/48/32 
f 50/76/50 32/48/32 49/75/49 
f 43/77/43 26/52/26 33/50/33 
f 43/77/43 33/50/33 50/76/50 
f 44/69/44 43/70/43 51/78/51 
f 44/69/44 51/78/51 52/79/52 
f 45/71/45 44/69/44 52/79/52 
f 45/71/45 52/79/52 53/80/53 
f 46/72/46 45/71/45 53/80/53 
f 46/72/46 53/80/53 54/98/54 
f 48/74/48 47/73/47 55/81/55 
f 48/74/48 55/81/55 56/82/56 
f 49/75/49 48/74/48 56/82/56 
f 49/75/49 56/82/56 57/83/57 
f 50/76/50 49/75/49 57/83/57 
f 50/76/50 57/83/57 58/84/58 
f 43/77/43 50/76/50 58/84/58 
f 43/77/43 58/84/58 51/85/51 
f 59/61/59 52/87/52 51/86/51 
f 59/61/59 51/86/51 66/62/66 
f 60/63/60 53/90/53 52/87/52 
f 60/63/60 52/87/52 59/61/59 
f 61/88/61 54/89/54 53/90/53 
f 61/88/61 53/90/53 60/63/60 
f 67/103/67 47/73/47 46/72/46 
f 67/103/67 46/72/46 68/100/68 
f 63/64/63 56/92/56 55/91/55 
f 63/64/63 55/91/55 62/65/62 
f 64/66/64 57/93/57 56/92/56 
f 64/66/64 56/92/56 63/64/63 
f 65/67/65 58/96/58 57/93/57 
f 65/67/65 57/93/57 64/66/64 
f 66/94/66 51/95/51 58/96/58 
f 66/94/66 58/96/58 65/67/65 
f 62/97/62 55/81/55 47/73/47 
f 62/97/62 47/73/47 67/103/67 
f 54/98/54 61/99/61 68/100/68 
f 54/98/54 68/100/68 46/72/46 
f 61/101/61 62/102/62 67/103/67 
f 61/101/61 67/103/67 68/100/68 
