o Utensil_Marker.obj
v 0.065000 -0.006250 0.002589
v 0.065000 -0.002589 0.006250
v 0.065000 0.002588 0.006250
v 0.065000 0.006250 0.002589
v 0.065000 0.006250 -0.002589
v 0.065000 0.002588 -0.006250
v 0.065000 -0.002589 -0.006250
v 0.065000 -0.006250 -0.002589
v 0.075000 0.000000 0.000000
v 0.075000 -0.003126 0.001294
v 0.075000 -0.001294 0.003125
v 0.075000 0.001294 0.003125
v 0.075000 0.003125 0.001294
v 0.075000 0.003125 -0.001294
v 0.075000 0.001294 -0.003125
v 0.075000 -0.001294 -0.003125
v 0.075000 -0.003126 -0.001294
v -0.017500 -0.006250 0.002589
v -0.017500 -0.002589 0.006250
v -0.017500 0.002588 0.006250
v -0.017500 0.006250 0.002589
v -0.017500 0.006250 -0.002589
v -0.017500 0.002588 -0.006250
v -0.017500 -0.002589 -0.006250
v -0.017500 -0.006250 -0.002589
v -0.055000 -0.006250 0.002589
v -0.055000 -0.002589 0.006250
v -0.055000 0.002588 0.006250
v -0.055000 0.006250 0.002589
v -0.055000 0.006250 -0.002589
v -0.055000 0.002588 -0.006250
v -0.055000 -0.002589 -0.006250
v -0.055000 -0.006250 -0.002589
v -0.075000 0.000000 0.000000
v -0.075000 -0.003126 0.001294
v -0.075000 -0.001294 0.003125
v -0.075000 0.001294 0.003125
v -0.075000 0.003125 0.001294
v -0.075000 0.003125 -0.001294
v -0.075000 0.001294 -0.003125
v -0.075000 -0.001294 -0.003125
v -0.075000 -0.003126 -0.001294
v -0.072500 -0.001942 0.004687
v -0.072500 0.001941 0.004687
v -0.072500 0.004687 0.001942
v -0.072500 0.004687 -0.001942
v -0.072500 0.001941 -0.004687
v -0.072500 -0.001942 -0.004688
v -0.072500 -0.004688 -0.001942
v -0.072500 -0.004688 0.001942
v -0.022500 -0.006250 0.002589
v -0.022500 -0.002589 0.006250
v -0.022500 0.002588 0.006250
v -0.022500 0.006250 0.002589
v -0.022500 0.006250 -0.002589
v -0.022500 0.002588 -0.006250
v -0.022500 -0.002589 -0.006250
v -0.022500 -0.006250 -0.002589
v -0.070000 0.007500 0.001875
v -0.055000 0.009062 0.002500
v -0.070000 0.007500 -0.001875
v -0.055000 0.009063 -0.002500
v -0.025000 0.009063 -0.002500
v -0.025000 0.009062 0.002500
vn 0.161448 -0.954846 0.249408
vn 0.161490 -0.498775 0.851554
vn 0.161479 0.249368 0.954851
vn 0.161492 0.851495 0.498875
vn 0.161492 0.954828 -0.249447
vn 0.161481 0.498755 -0.851567
vn 0.161491 -0.249407 -0.954839
vn 0.161467 -0.851512 -0.498854
vn 1.000000 0.000000 0.000000
vn 0.735004 -0.585040 0.342778
vn 0.734996 -0.171308 0.656075
vn 0.735003 0.342699 0.585089
vn 0.735008 0.656048 0.171361
vn 0.735006 0.585052 -0.342753
vn 0.734999 0.171366 -0.656057
vn 0.734991 -0.342679 -0.585115
vn 0.734984 -0.656059 -0.171423
vn 0.000000 -0.923880 0.382683
vn 0.000000 -0.382683 0.923880
vn 0.000000 0.382620 0.923906
vn 0.000000 0.923853 0.382746
vn 0.000000 0.923853 -0.382746
vn 0.000000 0.382620 -0.923906
vn 0.000000 -0.382683 -0.923880
vn 0.000000 -0.923880 -0.382683
vn -0.048154 -0.922703 0.382492
vn -0.048172 -0.381958 0.922923
vn -0.048181 0.382429 0.922728
vn -0.039036 0.396446 0.917228
vn -0.031535 0.401438 -0.915343
vn -0.048177 0.381916 -0.922940
vn -0.048163 -0.382453 -0.922719
vn -0.048154 -0.922912 -0.381987
vn -1.000000 0.000000 0.000000
vn -0.834243 -0.533489 0.139387
vn -0.834248 -0.278614 0.475820
vn -0.834214 0.139363 0.533541
vn -0.834237 0.475769 0.278733
vn -0.834236 0.533511 -0.139342
vn -0.834237 0.278672 -0.475806
vn -0.834284 -0.139223 -0.533467
vn -0.834296 -0.475692 -0.278690
vn -0.338588 -0.237735 0.910406
vn -0.338576 0.475522 0.811939
vn -0.448962 0.671827 0.589136
vn -0.480036 0.703800 -0.523670
vn -0.338577 0.237832 -0.910385
vn -0.338691 -0.475473 -0.811920
vn -0.338566 -0.910401 -0.237790
vn -0.338614 -0.811838 0.475668
vn 0.000000 -0.923880 0.382683
vn 0.000000 -0.382683 0.923880
vn 0.000000 0.382620 0.923906
vn 0.230594 0.845573 0.481490
vn 0.131419 0.676651 -0.724480
vn 0.000000 0.382620 -0.923906
vn 0.000000 -0.382683 -0.923880
vn 0.000000 -0.923880 -0.382683
vn -0.444459 0.859309 0.253068
vn -0.044270 0.721177 0.691335
vn -0.333167 0.622018 -0.708585
vn -0.058525 0.715918 -0.695727
vn 0.392228 0.881731 -0.262121
vn 0.272154 0.629158 0.728075
vt 0.209810 0.813080
vt 0.238178 0.813132
vt 0.213461 0.880752
vt 0.194055 0.877443
vt 0.181538 0.813086
vt 0.171897 0.876422
vt 0.153319 0.813150
vt 0.147995 0.876338
vt 0.125121 0.813271
vt 0.123302 0.876551
vt 0.096919 0.813447
vt 0.098721 0.876927
vt 0.068693 0.813676
vt 0.075382 0.876786
vt 0.040417 0.813960
vt 0.054515 0.877932
vt 0.012044 0.814300
vt 0.037270 0.882035
vt 0.199764 0.902523
vt 0.181744 0.899445
vt 0.159844 0.896059
vt 0.135907 0.895665
vt 0.111465 0.895824
vt 0.086881 0.895855
vt 0.066333 0.898313
vt 0.050845 0.900799
vt 0.236278 0.361417
vt 0.207914 0.361542
vt 0.179549 0.361682
vt 0.151192 0.361825
vt 0.122846 0.361960
vt 0.094482 0.362092
vt 0.066106 0.362229
vt 0.037728 0.362378
vt 0.186537 0.028075
vt 0.205534 0.026971
vt 0.188844 0.046559
vt 0.166674 0.028226
vt 0.166281 0.046747
vt 0.145694 0.027766
vt 0.143742 0.046715
vt 0.122495 0.026491
vt 0.098721 0.025532
vt 0.097498 0.046306
vt 0.075231 0.026520
vt 0.074175 0.046301
vt 0.054236 0.026622
vt 0.051003 0.046108
vt 0.032597 0.025680
vt 0.028079 0.045695
vt 0.196066 0.007858
vt 0.176087 0.007860
vt 0.157761 0.007862
vt 0.135271 0.007868
vt 0.111506 0.007875
vt 0.088009 0.007873
vt 0.064386 0.007867
vt 0.044234 0.007865
vt 0.208288 0.333177
vt 0.236729 0.332341
vt 0.179954 0.334003
vt 0.094268 0.334228
vt 0.122523 0.334679
vt 0.066015 0.333824
vt 0.037696 0.333435
vt 0.009358 0.362545
vt 0.211342 0.046146
vt 0.226336 0.148489
vt 0.199503 0.148728
vt 0.172794 0.148914
vt 0.145954 0.149049
vt 0.201410 0.973763
vt 0.201449 0.945997
vt 0.120666 0.046143
vt 0.124531 0.148796
vt 0.097020 0.148773
vt 0.069738 0.148701
vt 0.042449 0.148579
vt 0.014912 0.148406
vt 0.151676 0.334864
vt 0.009251 0.333034
vt 0.301691 0.985098
vt 0.201863 0.930339
vt 0.302337 0.935748
vt 0.285907 0.949676
vt 0.307579 0.949128
vt 0.307739 0.971496
vt 0.285799 0.971040
vt 0.020455 0.930187
vt 0.201960 0.989414
vt 0.020392 0.989527
vt 0.034356 0.973798
vt 0.013366 0.974287
vt 0.013375 0.945405
vt 0.034365 0.945907
g L_COMBO
f 2/1/2 1/2/1 10/3/10 
f 2/1/2 10/3/10 11/4/11 
f 3/5/3 2/1/2 11/4/11 
f 3/5/3 11/4/11 12/6/12 
f 4/7/4 3/5/3 12/6/12 
f 4/7/4 12/6/12 13/8/13 
f 5/9/5 4/7/4 13/8/13 
f 5/9/5 13/8/13 14/10/14 
f 6/11/6 5/9/5 14/10/14 
f 6/11/6 14/10/14 15/12/15 
f 7/13/7 6/11/6 15/12/15 
f 7/13/7 15/12/15 16/14/16 
f 8/15/8 7/13/7 16/14/16 
f 8/15/8 16/14/16 17/16/17 
f 1/17/1 8/15/8 17/16/17 
f 1/17/1 17/16/17 10/18/10 
f 10/3/10 9/19/9 11/4/11 
f 11/4/11 9/20/9 12/6/12 
f 12/6/12 9/21/9 13/8/13 
f 13/8/13 9/22/9 14/10/14 
f 14/10/14 9/23/9 15/12/15 
f 15/12/15 9/24/9 16/14/16 
f 16/14/16 9/25/9 17/16/17 
f 17/16/17 9/26/9 10/18/10 
f 18/27/18 1/2/1 2/1/2 
f 18/27/18 2/1/2 19/28/19 
f 19/28/19 2/1/2 3/5/3 
f 19/28/19 3/5/3 20/29/20 
f 20/29/20 3/5/3 4/7/4 
f 20/29/20 4/7/4 21/30/21 
f 21/30/21 4/7/4 5/9/5 
f 21/30/21 5/9/5 22/31/22 
f 22/31/22 5/9/5 6/11/6 
f 22/31/22 6/11/6 23/32/23 
f 23/32/23 6/11/6 7/13/7 
f 23/32/23 7/13/7 24/33/24 
f 24/33/24 7/13/7 8/15/8 
f 24/33/24 8/15/8 25/34/25 
f 25/34/25 8/15/8 1/17/1 
f 25/34/25 1/17/1 18/66/18 
f 36/35/36 35/36/35 50/67/50 
f 36/35/36 50/67/50 43/37/43 
f 37/38/37 36/35/36 43/37/43 
f 37/38/37 43/37/43 44/39/44 
f 38/40/38 37/38/37 44/39/44 
f 38/40/38 44/39/44 45/41/45 
f 39/42/39 38/40/38 45/41/45 
f 39/42/39 45/41/45 46/74/46 
f 40/43/40 39/42/39 46/74/46 
f 40/43/40 46/74/46 47/44/47 
f 41/45/41 40/43/40 47/44/47 
f 41/45/41 47/44/47 48/46/48 
f 42/47/42 41/45/41 48/46/48 
f 42/47/42 48/46/48 49/48/49 
f 35/49/35 42/47/42 49/48/49 
f 35/49/35 49/48/49 50/50/50 
f 36/35/36 34/51/34 35/36/35 
f 37/38/37 34/52/34 36/35/36 
f 38/40/38 34/53/34 37/38/37 
f 39/42/39 34/54/34 38/40/38 
f 40/43/40 34/55/34 39/42/39 
f 41/45/41 34/56/34 40/43/40 
f 42/47/42 34/57/34 41/45/41 
f 35/49/35 34/58/34 42/47/42 
f 19/28/19 52/59/52 51/60/51 
f 19/28/19 51/60/51 18/27/18 
f 20/29/20 53/61/53 52/59/52 
f 20/29/20 52/59/52 19/28/19 
f 21/30/21 54/80/54 53/61/53 
f 21/30/21 53/61/53 20/29/20 
f 22/31/22 55/63/55 54/80/54 
f 22/31/22 54/80/54 21/30/21 
f 23/32/23 56/62/56 55/63/55 
f 23/32/23 55/63/55 22/31/22 
f 24/33/24 57/64/57 56/62/56 
f 24/33/24 56/62/56 23/32/23 
f 25/34/25 58/65/58 57/64/57 
f 25/34/25 57/64/57 24/33/24 
f 18/66/18 51/81/51 58/65/58 
f 18/66/18 58/65/58 25/34/25 
f 50/67/50 26/68/26 27/69/27 
f 50/67/50 27/69/27 43/37/43 
f 43/37/43 27/69/27 28/70/28 
f 43/37/43 28/70/28 44/39/44 
f 44/39/44 28/70/28 29/71/29 
f 44/39/44 29/71/29 45/41/45 
f 59/88/59 60/72/60 62/73/62 
f 59/88/59 62/73/62 61/85/61 
f 46/74/46 30/75/30 31/76/31 
f 46/74/46 31/76/31 47/44/47 
f 47/44/47 31/76/31 32/77/32 
f 47/44/47 32/77/32 48/46/48 
f 48/46/48 32/77/32 33/78/33 
f 48/46/48 33/78/33 49/48/49 
f 49/48/49 33/78/33 26/79/26 
f 49/48/49 26/79/26 50/50/50 
f 52/59/52 27/69/27 26/68/26 
f 52/59/52 26/68/26 51/60/51 
f 53/61/53 28/70/28 27/69/27 
f 53/61/53 27/69/27 52/59/52 
f 54/80/54 29/71/29 28/70/28 
f 54/80/54 28/70/28 53/61/53 
f 63/95/63 62/73/62 60/72/60 
f 63/95/63 60/72/60 64/92/64 
f 56/62/56 31/76/31 30/75/30 
f 56/62/56 30/75/30 55/63/55 
f 57/64/57 32/77/32 31/76/31 
f 57/64/57 31/76/31 56/62/56 
f 58/65/58 33/78/33 32/77/32 
f 58/65/58 32/77/32 57/64/57 
f 51/81/51 26/79/26 33/78/33 
f 51/81/51 33/78/33 58/65/58 
f 45/82/45 29/90/29 60/72/60 
f 45/82/45 60/72/60 59/88/59 
f 30/83/30 46/84/46 61/85/61 
f 30/83/30 61/85/61 62/73/62 
f 46/86/46 45/87/45 59/88/59 
f 46/86/46 59/88/59 61/85/61 
f 55/89/55 30/83/30 62/73/62 
f 55/89/55 62/73/62 63/95/63 
f 29/90/29 54/91/54 64/92/64 
f 29/90/29 64/92/64 60/72/60 
f 54/93/54 55/94/55 63/95/63 
f 54/93/54 63/95/63 64/92/64 
