o lowpoly2.obj
v -0.450000 0.000000 -0.300000
v 0.450000 0.000000 -0.300000
v -0.450000 0.760000 -0.300000
v 0.450000 0.760000 -0.300000
v -0.450000 0.000000 0.300000
v 0.450000 0.000000 0.300000
v -0.450000 0.760000 0.300000
v 0.450000 0.760000 0.300000
v -0.410000 0.340000 0.300000
v 0.410000 0.340000 0.300000
v -0.410000 0.380000 0.300000
v 0.410000 0.380000 0.300000
v 0.350000 0.380000 0.300000
v 0.350000 0.340000 0.300000
v -0.350000 0.340000 0.300000
v -0.350000 0.380000 0.300000
v -0.450000 0.380000 0.300000
v 0.450000 0.380000 0.300000
v 0.350000 0.280000 0.300000
v -0.350000 0.280000 0.300000
v 0.320000 0.310000 0.270000
v -0.320000 0.310000 0.270000
v 0.350000 0.370000 0.300000
v -0.350000 0.370000 0.300000
v 0.320000 0.370000 0.270000
v -0.320000 0.370000 0.270000
v -0.410000 0.680000 0.300000
v 0.410000 0.680000 0.300000
v -0.410000 0.720000 0.300000
v 0.410000 0.720000 0.300000
v 0.350000 0.720000 0.300000
v 0.350000 0.680000 0.300000
v -0.350000 0.680000 0.300000
v -0.350000 0.720000 0.300000
v 0.350000 0.620000 0.300000
v -0.350000 0.620000 0.300000
v 0.320000 0.650000 0.270000
v -0.320000 0.650000 0.270000
v 0.350000 0.710000 0.300000
v -0.350000 0.710000 0.300000
v 0.320000 0.710000 0.270000
v -0.320000 0.710000 0.270000
v 0.450000 0.380000 -0.300000
v -0.450000 0.380000 -0.300000
v -0.350000 0.380000 0.315000
v -0.405000 0.380000 0.315000
v -0.405000 0.340000 0.315000
v -0.350000 0.340000 0.315000
v 0.350000 0.340000 0.315000
v 0.350000 0.380000 0.315000
v 0.405000 0.340000 0.315000
v 0.405000 0.380000 0.315000
v 0.350000 0.340000 0.300000
v 0.410000 0.340000 0.300000
v -0.350000 0.380000 0.300000
v -0.410000 0.380000 0.300000
v 0.410000 0.380000 0.300000
v -0.410000 0.340000 0.300000
v -0.350000 0.340000 0.300000
v 0.350000 0.380000 0.300000
v 0.350000 0.370000 0.300000
v -0.350000 0.370000 0.300000
v -0.350000 0.720000 0.315000
v -0.405000 0.720000 0.315000
v -0.405000 0.680000 0.315000
v -0.350000 0.680000 0.315000
v 0.350000 0.680000 0.315000
v 0.350000 0.720000 0.315000
v 0.405000 0.680000 0.315000
v 0.405000 0.720000 0.315000
v -0.410000 0.720000 0.300000
v -0.410000 0.680000 0.300000
v -0.350000 0.720000 0.300000
v 0.350000 0.720000 0.300000
v 0.410000 0.720000 0.300000
v 0.410000 0.680000 0.300000
v 0.350000 0.680000 0.300000
v -0.350000 0.680000 0.300000
v 0.350000 0.710000 0.300000
v -0.350000 0.710000 0.300000
vn -0.333333 -0.666667 -0.666667
vn 0.816497 -0.408248 -0.408248
vn -0.816497 0.408248 -0.408248
vn 0.333333 0.666667 -0.666667
vn -0.436436 -0.218218 0.872872
vn 0.267261 -0.534522 0.801784
vn -0.218218 0.436436 0.872872
vn 0.365148 0.182574 0.912871
vn 0.000000 0.000000 1.000000
vn 0.000000 0.000000 1.000000
vn 0.000000 0.000000 1.000000
vn 0.000000 0.000000 1.000000
vn 0.000000 0.000000 1.000000
vn -0.562097 0.000000 0.827072
vn 0.562097 0.000000 0.827072
vn 0.000000 0.000000 1.000000
vn -0.600000 0.000000 0.800000
vn 0.600000 0.000000 0.800000
vn -0.111845 0.223689 0.968222
vn 0.156230 0.156230 0.975287
vn -0.320377 0.160189 0.933648
vn 0.327413 0.327413 0.886342
vn -0.316228 -0.894427 0.316228
vn 0.500000 -0.707107 0.500000
vn -0.475963 -0.336557 0.812520
vn 0.336557 -0.475963 0.812520
vn 0.000000 0.000000 1.000000
vn 0.000000 0.000000 1.000000
vn 0.000000 0.000000 1.000000
vn 0.000000 0.000000 1.000000
vn 0.000000 0.000000 1.000000
vn -0.562097 0.000000 0.827072
vn 0.562097 0.000000 0.827072
vn 0.000000 0.000000 1.000000
vn -0.096934 0.193868 0.976227
vn 0.128430 0.128430 0.983368
vn -0.320377 0.160189 0.933648
vn 0.327413 0.327413 0.886342
vn -0.316228 -0.894427 0.316228
vn 0.500000 -0.707107 0.500000
vn -0.475963 -0.336557 0.812520
vn 0.336557 -0.475963 0.812520
vn 0.707107 0.000000 -0.707107
vn -0.707107 0.000000 -0.707107
vn 0.000000 0.447214 0.894427
vn -0.368370 0.776592 0.511086
vn -0.558779 -0.294502 0.775264
vn 0.000000 -0.894427 0.447214
vn 0.000000 -0.554700 0.832050
vn 0.000000 0.800000 0.600000
vn 0.296104 -0.624241 0.722942
vn 0.703941 0.371009 0.605656
vn 0.000000 -0.970143 -0.242536
vn 0.848528 -0.447214 0.282842
vn 0.000000 1.000000 0.000000
vn -0.848528 0.447214 0.282842
vn 0.424264 0.894427 0.141421
vn -0.424264 -0.894427 0.141421
vn 0.000000 -0.707107 -0.707107
vn 0.000000 1.000000 0.000000
vn 0.000000 0.000000 -1.000000
vn 0.000000 0.000000 -1.000000
vn 0.000000 0.447214 0.894427
vn -0.368370 0.776592 0.511086
vn -0.558779 -0.294502 0.775264
vn 0.000000 -0.894427 0.447214
vn 0.000000 -0.554700 0.832050
vn 0.000000 0.800000 0.600000
vn 0.296104 -0.624241 0.722942
vn 0.703941 0.371009 0.605656
vn -0.848528 0.447214 0.282842
vn -0.424264 -0.894427 0.141421
vn 0.000000 1.000000 0.000000
vn 0.000000 1.000000 0.000000
vn 0.424264 0.894427 0.141421
vn 0.848528 -0.447214 0.282842
vn 0.000000 -0.970143 -0.242536
vn 0.000000 -0.707107 -0.707107
vn 0.000000 0.000000 -1.000000
vn 0.000000 0.000000 -1.000000
vt 0.393238 0.458190
vt 0.393238 0.015986
vt 0.688040 0.015986
vt 0.688040 0.458190
vt 0.994767 0.015986
vt 0.994767 0.458189
vt 0.699964 0.458189
vt 0.699964 0.015986
vt 0.300403 0.476232
vt 0.005600 0.662940
vt 0.005600 0.476232
vt 0.192982 0.463558
vt 0.212781 0.443696
vt 0.242447 0.413725
vt 0.242447 0.066570
vt 0.223056 0.398780
vt 0.211378 0.417387
vt 0.223051 0.081510
vt 0.211376 0.062904
vt 0.381314 0.016982
vt 0.381313 0.463314
vt 0.196111 0.081495
vt 0.196116 0.398796
vt 0.980184 0.979995
vt 0.636245 0.979995
vt 0.650985 0.965255
vt 0.965444 0.965255
vt 0.212781 0.036598
vt 0.196074 0.062579
vt 0.196076 0.417710
vt 0.024113 0.444368
vt 0.054130 0.399084
vt 0.073562 0.414058
vt 0.042405 0.417791
vt 0.054125 0.081204
vt 0.073562 0.066236
vt 0.042403 0.062499
vt 0.004244 0.015986
vt 0.192982 0.016736
vt 0.024113 0.035926
vt 0.043905 0.444260
vt 0.027127 0.081189
vt 0.027133 0.399100
vt 0.980184 0.953331
vt 0.636245 0.953331
vt 0.650985 0.938591
vt 0.965444 0.938591
vt 0.043905 0.036034
vt 0.192905 0.036578
vt 0.027050 0.062208
vt 0.027052 0.418080
vt 0.192816 0.066251
vt 0.192905 0.443716
vt 0.192816 0.414042
vt 0.620983 0.474585
vt 0.807691 0.916789
vt 0.620983 0.916789
vt 0.312326 0.849648
vt 0.607129 0.662940
vt 0.607129 0.849648
vt 0.300403 0.662940
vt 0.300403 0.849648
vt 0.005600 0.849648
vt 0.807691 0.474585
vt 0.994400 0.474585
vt 0.994400 0.916789
vt 0.312326 0.662940
vt 0.312326 0.476232
vt 0.607129 0.476232
vt 0.024169 0.414494
vt 0.024169 0.065799
vt 0.004244 0.464308
vt 0.133897 0.906828
vt 0.106874 0.906802
vt 0.106892 0.887148
vt 0.133916 0.887174
vt 0.477852 0.887504
vt 0.477834 0.907158
vt 0.504876 0.887530
vt 0.504857 0.907183
vt 0.477859 0.880134
vt 0.512645 0.887537
vt 0.133890 0.914198
vt 0.099105 0.906794
vt 0.507307 0.914556
vt 0.104443 0.879776
vt 0.507340 0.880162
vt 0.512626 0.907191
vt 0.104410 0.914170
vt 0.099124 0.887141
vt 0.133923 0.879804
vt 0.477827 0.914527
vt 0.477874 0.865394
vt 0.133937 0.865064
vt 0.135085 0.976286
vt 0.135104 0.956633
vt 0.479040 0.956963
vt 0.479021 0.976616
vt 0.506044 0.976642
vt 0.108080 0.956607
vt 0.100292 0.976253
vt 0.100311 0.956599
vt 0.108061 0.976260
vt 0.135078 0.983656
vt 0.105597 0.983628
vt 0.479014 0.983986
vt 0.508494 0.984014
vt 0.513832 0.956996
vt 0.513813 0.976650
vt 0.506063 0.956989
vt 0.479047 0.949592
vt 0.508527 0.949621
vt 0.135111 0.949262
vt 0.105630 0.949234
vt 0.479061 0.934853
vt 0.135125 0.934523
g L_filecab
f 6/1/6 5/2/5 1/3/1 
f 6/1/6 1/3/1 2/4/2 
f 7/5/7 8/6/8 4/7/4 
f 7/5/7 4/7/4 3/8/3 
f 5/9/5 17/61/17 44/10/44 
f 5/9/5 44/10/44 1/11/1 
f 18/12/18 12/53/12 10/13/10 
f 5/20/5 6/21/6 19/14/19 
f 5/20/5 19/14/19 20/15/20 
f 21/16/21 19/14/19 14/17/14 
f 19/14/19 21/16/21 22/18/22 
f 19/14/19 22/18/22 20/15/20 
f 20/15/20 22/18/22 15/19/15 
f 9/28/9 17/39/17 5/20/5 
f 11/49/11 17/39/17 9/28/9 
f 6/21/6 18/12/18 10/13/10 
f 26/22/26 22/18/22 21/16/21 
f 26/22/26 21/16/21 25/23/25 
f 23/24/23 24/25/24 26/26/26 
f 23/24/23 26/26/26 25/27/25 
f 20/15/20 15/19/15 9/28/9 
f 20/15/20 9/28/9 5/20/5 
f 15/19/15 22/18/22 26/22/26 
f 26/22/26 24/29/24 15/19/15 
f 25/23/25 21/16/21 14/17/14 
f 25/23/25 14/17/14 23/30/23 
f 8/72/8 30/31/30 28/41/28 
f 37/32/37 35/33/35 32/34/32 
f 35/33/35 37/32/37 38/35/38 
f 35/33/35 38/35/38 36/36/36 
f 36/36/36 38/35/38 33/37/33 
f 27/48/27 7/38/7 17/39/17 
f 29/40/29 7/38/7 27/48/27 
f 28/41/28 12/53/12 18/12/18 
f 42/42/42 38/35/38 37/32/37 
f 42/42/42 37/32/37 41/43/41 
f 39/44/39 40/45/40 42/46/42 
f 39/44/39 42/46/42 41/47/41 
f 36/36/36 33/37/33 27/48/27 
f 36/36/36 27/48/27 11/49/11 
f 33/37/33 38/35/38 42/42/42 
f 42/42/42 40/50/40 33/37/33 
f 41/43/41 37/32/37 32/34/32 
f 41/43/41 32/34/32 39/51/39 
f 35/33/35 36/36/36 16/52/16 
f 36/36/36 11/49/11 16/52/16 
f 12/53/12 35/33/35 13/54/13 
f 35/33/35 16/52/16 13/54/13 
f 35/33/35 12/53/12 28/41/28 
f 28/41/28 32/34/32 35/33/35 
f 19/14/19 6/21/6 10/13/10 
f 10/13/10 14/17/14 19/14/19 
f 17/39/17 11/49/11 27/48/27 
f 18/12/18 8/72/8 28/41/28 
f 4/55/4 43/64/43 44/56/44 
f 4/55/4 44/56/44 3/57/3 
f 8/58/8 18/67/18 43/59/43 
f 8/58/8 43/59/43 4/60/4 
f 17/61/17 7/62/7 3/63/3 
f 17/61/17 3/63/3 44/10/44 
f 43/64/43 2/65/2 1/66/1 
f 43/64/43 1/66/1 44/56/44 
f 18/67/18 6/68/6 2/69/2 
f 18/67/18 2/69/2 43/59/43 
f 31/70/31 30/31/30 8/72/8 
f 29/40/29 34/71/34 7/38/7 
f 8/72/8 7/38/7 34/71/34 
f 8/72/8 34/71/34 31/70/31 
f 45/73/45 46/74/46 47/75/47 
f 45/73/45 47/75/47 48/76/48 
f 45/73/45 48/76/48 49/77/49 
f 45/73/45 49/77/49 50/78/50 
f 51/79/51 50/78/50 49/77/49 
f 51/79/51 52/80/52 50/78/50 
f 51/79/51 49/77/49 53/81/53 
f 52/80/52 51/79/51 54/82/54 
f 46/74/46 45/73/45 55/83/55 
f 47/75/47 46/74/46 56/84/56 
f 48/76/48 53/81/53 49/77/49 
f 50/78/50 55/83/55 45/73/45 
f 50/78/50 52/80/52 57/85/57 
f 48/76/48 47/75/47 58/86/58 
f 51/79/51 53/81/53 54/87/54 
f 52/80/52 54/82/54 57/88/57 
f 46/74/46 55/83/55 56/89/56 
f 47/75/47 56/84/56 58/90/58 
f 48/76/48 59/91/59 53/81/53 
f 50/78/50 60/92/60 55/83/55 
f 50/78/50 57/85/57 60/92/60 
f 48/76/48 58/86/58 59/91/59 
f 59/91/59 61/93/61 53/81/53 
f 59/91/59 62/94/62 61/93/61 
f 63/95/63 64/103/64 65/100/65 
f 63/95/63 65/100/65 66/96/66 
f 63/95/63 66/96/66 67/97/67 
f 63/95/63 67/97/67 68/98/68 
f 69/110/69 68/98/68 67/97/67 
f 69/110/69 70/99/70 68/98/68 
f 65/100/65 71/101/71 72/102/72 
f 65/100/65 64/103/64 71/101/71 
f 64/103/64 73/104/73 71/105/71 
f 64/103/64 63/95/63 73/104/73 
f 68/98/68 73/104/73 63/95/63 
f 68/98/68 74/106/74 73/104/73 
f 68/98/68 75/107/75 74/106/74 
f 68/98/68 70/99/70 75/107/75 
f 70/99/70 69/110/69 76/108/76 
f 70/99/70 76/108/76 75/109/75 
f 69/110/69 77/111/77 76/112/76 
f 69/110/69 67/97/67 77/111/77 
f 66/96/66 77/111/77 67/97/67 
f 66/96/66 78/113/78 77/111/77 
f 66/96/66 72/114/72 78/113/78 
f 66/96/66 65/100/65 72/114/72 
f 78/113/78 79/115/79 77/111/77 
f 78/113/78 80/116/80 79/115/79 
