o lowpoly.obj
v -0.150000 0.100000 0.131250
v -0.150000 0.000000 0.131250
v -0.147488 0.100000 0.140625
v -0.147488 0.000000 0.140625
v -0.140625 0.100000 0.147488
v -0.140625 0.000000 0.147488
v 0.131250 0.100000 0.150000
v 0.131250 0.000000 0.150000
v 0.140625 0.100000 0.147488
v 0.140625 0.000000 0.147488
v 0.147488 0.100000 0.140625
v 0.147488 0.000000 0.140625
v 0.150000 0.100000 0.131250
v 0.150000 0.000000 0.131250
v 0.147488 0.100000 -0.140625
v 0.147488 0.000000 -0.140625
v 0.140625 0.100000 -0.147488
v 0.140625 0.000000 -0.147488
v 0.131250 0.100000 -0.150000
v 0.131250 0.000000 -0.150000
v -0.140625 0.100000 -0.147488
v -0.140625 0.000000 -0.147488
v -0.147488 0.100000 -0.140625
v -0.147488 0.000000 -0.140625
v 0.131250 0.000000 0.131250
v 0.131250 0.100000 0.131250
v 0.150000 0.000000 -0.131250
v 0.150000 0.100000 -0.131250
v 0.131250 0.000000 -0.131250
v 0.131250 0.100000 -0.131250
v -0.150000 0.100000 -0.131250
v -0.150000 0.000000 -0.131250
v -0.131250 0.000000 0.150000
v -0.131250 0.100000 0.150000
v -0.131250 0.000000 0.131250
v -0.131250 0.100000 0.131250
v -0.131250 0.000000 -0.150000
v -0.131250 0.100000 -0.150000
v -0.131250 0.000000 -0.131250
v -0.131250 0.100000 -0.131250
v -0.150000 0.050000 0.131250
v -0.147488 0.050000 0.140625
v -0.140625 0.050000 0.147488
v -0.131250 0.050000 0.150000
v 0.131250 0.050000 0.150000
v 0.140625 0.050000 0.147488
v 0.147488 0.050000 0.140625
v 0.150000 0.050000 0.131250
v 0.150000 0.050000 -0.131250
v 0.147488 0.050000 -0.140625
v 0.140625 0.050000 -0.147488
v 0.131250 0.050000 -0.150000
v -0.131250 0.050000 -0.150000
v -0.140625 0.050000 -0.147488
v -0.147488 0.050000 -0.140625
v -0.150000 0.050000 -0.131250
v -0.147488 0.085000 0.140625
v -0.140625 0.085000 0.147488
v -0.131250 0.085000 0.150000
v 0.140625 0.085000 0.147488
v 0.147488 0.085000 0.140625
v 0.150000 0.085000 0.131250
v 0.147488 0.085000 -0.140625
v 0.140625 0.085000 -0.147488
v 0.131250 0.085000 -0.150000
v -0.140625 0.085000 -0.147488
v -0.147488 0.085000 -0.140625
v -0.150000 0.085000 -0.131250
v -0.150000 0.085000 0.131250
v 0.131250 0.085000 0.150000
v 0.150000 0.085000 -0.131250
v -0.131250 0.085000 -0.150000
v -0.150000 0.015000 0.131250
v 0.131250 0.015000 0.150000
v 0.150000 0.015000 -0.131250
v -0.131250 0.015000 -0.150000
v -0.147488 0.015000 0.140625
v -0.140625 0.015000 0.147488
v -0.131250 0.015000 0.150000
v 0.140625 0.015000 0.147488
v 0.147488 0.015000 0.140625
v 0.150000 0.015000 0.131250
v 0.147488 0.015000 -0.140625
v 0.140625 0.015000 -0.147488
v 0.131250 0.015000 -0.150000
v -0.140625 0.015000 -0.147488
v -0.147488 0.015000 -0.140625
v -0.150000 0.015000 -0.131250
v -0.149946 0.095000 0.142969
v -0.142969 0.095000 0.149946
v -0.133437 0.095000 0.152500
v 0.142969 0.095000 0.149946
v 0.149946 0.095000 0.142969
v 0.152500 0.095000 0.133437
v 0.149946 0.095000 -0.142969
v 0.142969 0.095000 -0.149946
v 0.133437 0.095000 -0.152500
v -0.142969 0.095000 -0.149946
v -0.149946 0.095000 -0.142969
v -0.152500 0.095000 -0.133437
v -0.152500 0.095000 0.133437
v 0.133437 0.095000 0.152500
v 0.152500 0.095000 -0.133437
v -0.133437 0.095000 -0.152500
v -0.152500 0.090000 0.133437
v 0.133437 0.090000 0.152500
v 0.152500 0.090000 -0.133437
v -0.133437 0.090000 -0.152500
v -0.149946 0.090000 0.142969
v -0.142969 0.090000 0.149946
v -0.133437 0.090000 0.152500
v 0.142969 0.090000 0.149946
v 0.149946 0.090000 0.142969
v 0.152500 0.090000 0.133437
v 0.149946 0.090000 -0.142969
v 0.142969 0.090000 -0.149946
v 0.133437 0.090000 -0.152500
v -0.142969 0.090000 -0.149946
v -0.149946 0.090000 -0.142969
v -0.152500 0.090000 -0.133437
v -0.152500 0.010000 0.133437
v 0.133437 0.010000 0.152500
v 0.152500 0.010000 -0.133437
v -0.133437 0.010000 -0.152500
v -0.149946 0.010000 0.142969
v -0.142969 0.010000 0.149946
v -0.133437 0.010000 0.152500
v 0.142969 0.010000 0.149946
v 0.149946 0.010000 0.142969
v 0.152500 0.010000 0.133437
v 0.149946 0.010000 -0.142969
v 0.142969 0.010000 -0.149946
v 0.133437 0.010000 -0.152500
v -0.142969 0.010000 -0.149946
v -0.149946 0.010000 -0.142969
v -0.152500 0.010000 -0.133437
v -0.152500 0.005000 0.133437
v 0.133437 0.005000 0.152500
v 0.152500 0.005000 -0.133437
v -0.133437 0.005000 -0.152500
v -0.149946 0.005000 0.142969
v -0.142969 0.005000 0.149946
v -0.133437 0.005000 0.152500
v 0.142969 0.005000 0.149946
v 0.149946 0.005000 0.142969
v 0.152500 0.005000 0.133437
v 0.149946 0.005000 -0.142969
v 0.142969 0.005000 -0.149946
v 0.133437 0.005000 -0.152500
v -0.142969 0.005000 -0.149946
v -0.149946 0.005000 -0.142969
v -0.152500 0.005000 -0.133437
vn -0.398718 0.915631 0.051412
vn -0.608625 -0.791774 0.051671
vn -0.515477 0.823628 0.236475
vn -0.515477 -0.823628 0.236475
vn -0.318108 0.830703 0.456881
vn -0.318108 -0.830703 0.456881
vn 0.051412 0.915631 0.398718
vn 0.051671 -0.791774 0.608625
vn 0.236475 0.823628 0.515477
vn 0.236475 -0.823628 0.515477
vn 0.456881 0.830703 0.318108
vn 0.456881 -0.830703 0.318108
vn 0.658228 0.748019 0.084872
vn 0.494111 -0.865133 0.086024
vn 0.515477 0.823628 -0.236475
vn 0.515477 -0.823628 -0.236475
vn 0.318108 0.830703 -0.456881
vn 0.318108 -0.830703 -0.456881
vn 0.084872 0.748019 -0.658228
vn 0.086024 -0.865133 -0.494111
vn -0.236475 0.823628 -0.515477
vn -0.236475 -0.823628 -0.515477
vn -0.456881 0.830703 -0.318108
vn -0.456881 -0.830703 -0.318108
vn 0.000000 -1.000000 0.000000
vn 0.000000 1.000000 0.000000
vn 0.608625 -0.791774 -0.051671
vn 0.398718 0.915631 -0.051412
vn 0.000000 -1.000000 0.000000
vn 0.000000 1.000000 0.000000
vn -0.658228 0.748019 -0.084872
vn -0.494111 -0.865133 -0.086024
vn -0.086024 -0.865133 0.494111
vn -0.084872 0.748019 0.658228
vn 0.000000 -1.000000 0.000000
vn 0.000000 1.000000 0.000000
vn -0.051671 -0.791774 -0.608625
vn -0.051412 0.915631 -0.398718
vn 0.000000 -1.000000 0.000000
vn 0.000000 1.000000 0.000000
vn -0.991445 0.000000 0.130525
vn -0.866026 0.000000 0.499999
vn -0.499999 0.000000 0.866026
vn -0.130525 0.000000 0.991445
vn 0.130525 0.000000 0.991445
vn 0.499999 0.000000 0.866026
vn 0.866026 0.000000 0.499999
vn 0.991445 0.000000 0.130525
vn 0.991445 0.000000 -0.130525
vn 0.866026 0.000000 -0.499999
vn 0.499999 0.000000 -0.866026
vn 0.130525 0.000000 -0.991445
vn -0.130525 0.000000 -0.991445
vn -0.499999 0.000000 -0.866026
vn -0.866026 0.000000 -0.499999
vn -0.991445 0.000000 -0.130525
vn -0.827844 -0.283910 0.483806
vn -0.469719 -0.293588 0.832569
vn -0.122216 -0.255642 0.959015
vn 0.483806 -0.283910 0.827844
vn 0.832569 -0.293588 0.469719
vn 0.959015 -0.255642 0.122216
vn 0.827844 -0.283910 -0.483806
vn 0.469719 -0.293588 -0.832569
vn 0.122216 -0.255642 -0.959015
vn -0.483806 -0.283910 -0.827844
vn -0.832569 -0.293588 -0.469719
vn -0.959015 -0.255642 -0.122216
vn -0.961366 -0.243616 0.128164
vn 0.128164 -0.243616 0.961366
vn 0.961366 -0.243616 -0.128164
vn -0.128164 -0.243616 -0.961366
vn -0.959015 0.255642 0.122216
vn 0.122216 0.255642 0.959015
vn 0.959015 0.255642 -0.122216
vn -0.122216 0.255642 -0.959015
vn -0.832569 0.293588 0.469719
vn -0.483806 0.283910 0.827844
vn -0.128164 0.243616 0.961366
vn 0.469719 0.293588 0.832569
vn 0.827844 0.283910 0.483806
vn 0.961366 0.243616 0.128164
vn 0.832569 0.293588 -0.469719
vn 0.483806 0.283910 -0.827844
vn 0.128164 0.243616 -0.961366
vn -0.469719 0.293588 -0.832569
vn -0.827844 0.283910 -0.483806
vn -0.961366 0.243616 -0.128164
vn -0.783429 0.292585 0.548300
vn -0.402019 0.282831 0.870854
vn -0.099998 0.199384 0.974806
vn 0.548300 0.292585 0.783429
vn 0.870854 0.282831 0.402019
vn 0.974806 0.199384 0.099998
vn 0.783429 0.292585 -0.548300
vn 0.402019 0.282831 -0.870854
vn 0.099998 0.199384 -0.974806
vn -0.548300 0.292585 -0.783429
vn -0.870854 0.282831 -0.402019
vn -0.974806 0.199384 -0.099998
vn -0.947803 0.285019 0.142946
vn 0.142946 0.285019 0.947803
vn 0.947803 0.285019 -0.142946
vn -0.142946 0.285019 -0.947803
vn -0.959015 -0.255642 0.122215
vn 0.122215 -0.255642 0.959015
vn 0.959015 -0.255642 -0.122215
vn -0.122215 -0.255642 -0.959015
vn -0.832571 -0.293588 0.469715
vn -0.483805 -0.283910 0.827845
vn -0.128160 -0.243616 0.961367
vn 0.469715 -0.293588 0.832571
vn 0.827845 -0.283910 0.483805
vn 0.961367 -0.243616 0.128160
vn 0.832571 -0.293588 -0.469715
vn 0.483805 -0.283910 -0.827845
vn 0.128160 -0.243616 -0.961367
vn -0.469715 -0.293588 -0.832571
vn -0.827845 -0.283910 -0.483805
vn -0.961367 -0.243616 -0.128160
vn -0.961367 0.243616 0.128160
vn 0.128160 0.243616 0.961367
vn 0.961367 0.243616 -0.128160
vn -0.128160 0.243616 -0.961367
vn -0.827845 0.283910 0.483805
vn -0.469715 0.293588 0.832570
vn -0.122215 0.255642 0.959015
vn 0.483805 0.283910 0.827845
vn 0.832570 0.293588 0.469715
vn 0.959015 0.255642 0.122215
vn 0.827845 0.283910 -0.483805
vn 0.469715 0.293588 -0.832570
vn 0.122215 0.255642 -0.959015
vn -0.483805 0.283910 -0.827845
vn -0.832570 0.293588 -0.469715
vn -0.959015 0.255642 -0.122215
vn -0.959015 -0.255642 0.122215
vn 0.122215 -0.255642 0.959015
vn 0.959015 -0.255642 -0.122215
vn -0.122215 -0.255642 -0.959015
vn -0.832571 -0.293588 0.469715
vn -0.483805 -0.283910 0.827845
vn -0.128160 -0.243616 0.961367
vn 0.469715 -0.293588 0.832571
vn 0.827845 -0.283910 0.483805
vn 0.961367 -0.243616 0.128160
vn 0.832571 -0.293588 -0.469715
vn 0.483805 -0.283910 -0.827845
vn 0.128160 -0.243616 -0.961367
vn -0.469715 -0.293588 -0.832571
vn -0.827845 -0.283910 -0.483805
vn -0.961367 -0.243616 -0.128160
vt 0.258051 0.021015
vt 0.256939 0.005711
vt 0.267011 0.021854
vt 0.463921 0.506396
vt 0.479321 0.502270
vt 0.479321 0.533069
vt 0.910492 0.004947
vt 0.925891 0.009073
vt 0.910492 0.035746
vt 0.257625 0.036570
vt 0.266812 0.035440
vt 0.452648 0.517670
vt 0.937165 0.020347
vt 0.265909 0.049624
vt 0.941291 0.035746
vt 0.257981 0.503169
vt 0.256969 0.486322
vt 0.266194 0.489923
vt 0.267151 0.503891
vt 0.452648 0.979653
vt 0.448522 0.964253
vt 0.479321 0.964253
vt 0.941291 0.466931
vt 0.937165 0.482330
vt 0.910492 0.466931
vt 0.258507 0.518503
vt 0.267415 0.517554
vt 0.463921 0.990927
vt 0.925891 0.493604
vt 0.257318 0.533509
vt 0.266523 0.532171
vt 0.479321 0.995053
vt 0.910492 0.497730
vt 0.226488 0.518351
vt 0.227600 0.533655
vt 0.217528 0.517513
vt 0.925905 0.990927
vt 0.910505 0.995053
vt 0.910505 0.964253
vt 0.463908 0.493604
vt 0.479307 0.466931
vt 0.226914 0.502797
vt 0.217727 0.503926
vt 0.937178 0.979653
vt 0.452634 0.482330
vt 0.227850 0.486131
vt 0.218630 0.489742
vt 0.941304 0.964253
vt 0.448509 0.466931
vt 0.226558 0.036198
vt 0.227570 0.053044
vt 0.218345 0.049444
vt 0.217388 0.035476
vt 0.937178 0.517670
vt 0.941304 0.533069
vt 0.910505 0.533069
vt 0.452634 0.020347
vt 0.479307 0.035746
vt 0.226033 0.020863
vt 0.217124 0.021812
vt 0.925905 0.506396
vt 0.463908 0.009073
vt 0.227221 0.005857
vt 0.218016 0.007195
vt 0.479307 0.004947
vt 0.255673 0.542156
vt 0.264856 0.976933
vt 0.255673 0.973340
vt 0.479307 0.497730
vt 0.226834 0.973340
vt 0.217652 0.538562
vt 0.226834 0.542156
vt 0.910505 0.502270
vt 0.425843 0.486213
vt 0.416623 0.489825
vt 0.416337 0.049526
vt 0.448522 0.533069
vt 0.448509 0.035746
vt 0.341075 0.005109
vt 0.398878 0.020951
vt 0.341093 0.021119
vt 0.398916 0.037023
vt 0.341110 0.037145
vt 0.398871 0.053143
vt 0.341126 0.053180
vt 0.341406 0.486269
vt 0.399152 0.486232
vt 0.399196 0.502324
vt 0.341412 0.502296
vt 0.399169 0.518381
vt 0.341417 0.518314
vt 0.399107 0.534383
vt 0.341422 0.534316
vt 0.143465 0.534257
vt 0.085661 0.518416
vt 0.143446 0.518248
vt 0.085624 0.502344
vt 0.143429 0.502222
vt 0.085668 0.486224
vt 0.143414 0.486187
vt 0.143133 0.053097
vt 0.085388 0.053135
vt 0.085344 0.037042
vt 0.143128 0.037070
vt 0.085370 0.020985
vt 0.143122 0.021053
vt 0.085432 0.004983
vt 0.143117 0.005051
vt 0.339742 0.542156
vt 0.397234 0.973340
vt 0.339742 0.973340
vt 0.142765 0.973340
vt 0.085274 0.542156
vt 0.142765 0.542156
vt 0.283660 0.486306
vt 0.283380 0.053218
vt 0.283370 0.005079
vt 0.283324 0.021084
vt 0.283318 0.037136
vt 0.283632 0.502397
vt 0.283669 0.518438
vt 0.283742 0.534419
vt 0.201170 0.534287
vt 0.201215 0.518282
vt 0.201221 0.502230
vt 0.201159 0.486149
vt 0.200879 0.053060
vt 0.200907 0.036969
vt 0.200870 0.020929
vt 0.200797 0.004947
vt 0.282251 0.542156
vt 0.282251 0.973340
vt 0.085274 0.973340
vt 0.076091 0.538562
vt 0.274441 0.489918
vt 0.274156 0.049619
vt 0.200256 0.973340
vt 0.200256 0.542156
vt 0.398783 0.004947
vt 0.408189 0.021823
vt 0.408239 0.035691
vt 0.408091 0.049531
vt 0.408376 0.489831
vt 0.408475 0.503856
vt 0.408346 0.517619
vt 0.408210 0.532259
vt 0.085757 0.534419
vt 0.076350 0.517544
vt 0.076301 0.503676
vt 0.076448 0.489835
vt 0.076163 0.049536
vt 0.076064 0.035511
vt 0.076193 0.021748
vt 0.076329 0.007107
vt 0.397234 0.542156
vt 0.406416 0.976933
vt 0.266286 0.007356
vt 0.274101 0.021883
vt 0.274032 0.035598
vt 0.274359 0.503698
vt 0.274456 0.517503
vt 0.274520 0.532412
vt 0.218253 0.532010
vt 0.210438 0.517483
vt 0.210507 0.503768
vt 0.210383 0.489747
vt 0.210098 0.049449
vt 0.210181 0.035668
vt 0.210083 0.021863
vt 0.210020 0.006954
vt 0.264856 0.538562
vt 0.273069 0.976933
vt 0.067878 0.976933
vt 0.058696 0.973340
vt 0.058696 0.542156
vt 0.067878 0.538562
vt 0.256689 0.053236
vt 0.076091 0.976933
vt 0.274205 0.007263
vt 0.210335 0.532103
vt 0.273069 0.538562
vt 0.209439 0.976933
vt 0.209439 0.538562
vt 0.408012 0.006785
vt 0.415366 0.021745
vt 0.415486 0.035470
vt 0.415697 0.503989
vt 0.415380 0.517687
vt 0.416129 0.532276
vt 0.076527 0.532581
vt 0.069173 0.517621
vt 0.069054 0.503897
vt 0.068202 0.489840
vt 0.067916 0.049541
vt 0.068842 0.035378
vt 0.069159 0.021680
vt 0.068410 0.007090
vt 0.406416 0.538562
vt 0.414629 0.976933
vt 0.217652 0.976933
vt 0.416129 0.006808
vt 0.425752 0.005204
vt 0.424468 0.020926
vt 0.424690 0.036612
vt 0.425562 0.053126
vt 0.424919 0.503241
vt 0.424300 0.518689
vt 0.425327 0.533706
vt 0.068410 0.532559
vt 0.058787 0.534163
vt 0.060072 0.518441
vt 0.059849 0.502754
vt 0.058977 0.486241
vt 0.059621 0.036125
vt 0.060239 0.020677
vt 0.059212 0.005661
vt 0.414629 0.538562
vt 0.423812 0.542156
vt 0.423812 0.973340
vt 0.058696 0.053153
g L_case_desktop
f 3/1/3 1/2/1 101/157/101 
f 3/1/3 101/157/101 89/3/89 
f 4/4/4 2/5/2 35/6/35 
f 1/7/1 3/8/3 36/9/36 
f 5/10/5 3/1/3 89/3/89 
f 5/10/5 89/3/89 90/11/90 
f 6/12/6 4/4/4 35/6/35 
f 3/8/3 5/13/5 36/9/36 
f 34/177/34 5/10/5 90/11/90 
f 34/177/34 90/11/90 91/14/91 
f 33/77/33 6/12/6 35/6/35 
f 5/13/5 34/15/34 36/9/36 
f 9/16/9 7/17/7 102/18/102 
f 9/16/9 102/18/102 92/19/92 
f 10/20/10 8/21/8 25/22/25 
f 7/23/7 9/24/9 26/25/26 
f 11/26/11 9/16/9 92/19/92 
f 11/26/11 92/19/92 93/27/93 
f 12/28/12 10/20/10 25/22/25 
f 9/24/9 11/29/11 26/25/26 
f 13/30/13 11/26/11 93/27/93 
f 13/30/13 93/27/93 94/31/94 
f 14/32/14 12/28/12 25/22/25 
f 11/29/11 13/33/13 26/25/26 
f 15/34/15 28/35/28 103/163/103 
f 15/34/15 103/163/103 95/36/95 
f 16/37/16 27/38/27 29/39/29 
f 28/69/28 15/40/15 30/41/30 
f 17/42/17 15/34/15 95/36/95 
f 17/42/17 95/36/95 96/43/96 
f 18/44/18 16/37/16 29/39/29 
f 15/40/15 17/45/17 30/41/30 
f 19/46/19 17/42/17 96/43/96 
f 19/46/19 96/43/96 97/47/97 
f 20/48/20 18/44/18 29/39/29 
f 17/45/17 19/49/19 30/41/30 
f 21/50/21 38/51/38 104/52/104 
f 21/50/21 104/52/104 98/53/98 
f 22/54/22 37/55/37 39/56/39 
f 38/78/38 21/57/21 40/58/40 
f 23/59/23 21/50/21 98/53/98 
f 23/59/23 98/53/98 99/60/99 
f 24/61/24 22/54/22 39/56/39 
f 21/57/21 23/62/23 40/58/40 
f 31/63/31 23/59/23 99/60/99 
f 31/63/31 99/60/99 100/64/100 
f 32/73/32 24/61/24 39/56/39 
f 23/62/23 31/65/31 40/58/40 
f 13/66/13 94/171/94 103/67/103 
f 13/66/13 103/67/103 28/68/28 
f 14/32/14 25/22/25 29/39/29 
f 14/32/14 29/39/29 27/38/27 
f 26/25/26 13/33/13 28/69/28 
f 26/25/26 28/69/28 30/41/30 
f 2/70/2 137/200/137 152/71/152 
f 2/70/2 152/71/152 32/72/32 
f 35/6/35 2/5/2 32/73/32 
f 35/6/35 32/73/32 39/56/39 
f 1/7/1 36/9/36 40/58/40 
f 1/7/1 40/58/40 31/65/31 
f 8/74/8 138/75/138 143/76/143 
f 8/74/8 143/76/143 33/205/33 
f 25/22/25 8/21/8 33/77/33 
f 25/22/25 33/77/33 35/6/35 
f 7/23/7 26/25/26 36/9/36 
f 7/23/7 36/9/36 34/15/34 
f 19/46/19 97/47/97 104/52/104 
f 19/46/19 104/52/104 38/51/38 
f 20/48/20 29/39/29 39/56/39 
f 20/48/20 39/56/39 37/55/37 
f 30/41/30 19/49/19 38/78/38 
f 30/41/30 38/78/38 40/58/40 
f 29/39/29 25/22/25 35/6/35 
f 29/39/29 35/6/35 39/56/39 
f 26/25/26 30/41/30 40/58/40 
f 26/25/26 40/58/40 36/9/36 
f 41/79/41 73/139/73 77/80/77 
f 41/79/41 77/80/77 42/81/42 
f 42/81/42 77/80/77 78/82/78 
f 42/81/42 78/82/78 43/83/43 
f 43/83/43 78/82/78 79/84/79 
f 43/83/43 79/84/79 44/85/44 
f 45/86/45 74/87/74 80/88/80 
f 45/86/45 80/88/80 46/89/46 
f 46/89/46 80/88/80 81/90/81 
f 46/89/46 81/90/81 47/91/47 
f 47/91/47 81/90/81 82/92/82 
f 47/91/47 82/92/82 48/93/48 
f 49/94/49 75/147/75 83/95/83 
f 49/94/49 83/95/83 50/96/50 
f 50/96/50 83/95/83 84/97/84 
f 50/96/50 84/97/84 51/98/51 
f 51/98/51 84/97/84 85/99/85 
f 51/98/51 85/99/85 52/100/52 
f 53/101/53 76/102/76 86/103/86 
f 53/101/53 86/103/86 54/104/54 
f 54/104/54 86/103/86 87/105/87 
f 54/104/54 87/105/87 55/106/55 
f 55/106/55 87/105/87 88/107/88 
f 55/106/55 88/107/88 56/108/56 
f 48/109/48 82/155/82 75/110/75 
f 48/109/48 75/110/75 49/111/49 
f 41/112/41 69/133/69 68/113/68 
f 41/112/41 68/113/68 56/114/56 
f 45/86/45 70/115/70 59/116/59 
f 45/86/45 59/116/59 44/85/44 
f 52/100/52 85/99/85 76/102/76 
f 52/100/52 76/102/76 53/101/53 
f 69/117/69 41/79/41 42/81/42 
f 69/117/69 42/81/42 57/118/57 
f 57/118/57 42/81/42 43/83/43 
f 57/118/57 43/83/43 58/119/58 
f 58/119/58 43/83/43 44/85/44 
f 58/119/58 44/85/44 59/116/59 
f 70/115/70 45/86/45 46/89/46 
f 70/115/70 46/89/46 60/120/60 
f 60/120/60 46/89/46 47/91/47 
f 60/120/60 47/91/47 61/121/61 
f 61/121/61 47/91/47 48/93/48 
f 61/121/61 48/93/48 62/122/62 
f 71/123/71 49/94/49 50/96/50 
f 71/123/71 50/96/50 63/124/63 
f 63/124/63 50/96/50 51/98/51 
f 63/124/63 51/98/51 64/125/64 
f 64/125/64 51/98/51 52/100/52 
f 64/125/64 52/100/52 65/126/65 
f 72/127/72 53/101/53 54/104/54 
f 72/127/72 54/104/54 66/128/66 
f 66/128/66 54/104/54 55/106/55 
f 66/128/66 55/106/55 67/129/67 
f 67/129/67 55/106/55 56/108/56 
f 67/129/67 56/108/56 68/130/68 
f 62/131/62 48/109/48 49/111/49 
f 62/131/62 49/111/49 71/132/71 
f 65/126/65 52/100/52 53/101/53 
f 65/126/65 53/101/53 72/127/72 
f 69/133/69 105/178/105 120/134/120 
f 69/133/69 120/134/120 68/113/68 
f 70/115/70 106/135/106 111/136/111 
f 70/115/70 111/136/111 59/116/59 
f 73/137/73 41/112/41 56/114/56 
f 73/137/73 56/114/56 88/138/88 
f 74/87/74 45/86/45 44/85/44 
f 74/87/74 44/85/44 79/84/79 
f 73/139/73 121/184/121 125/140/125 
f 73/139/73 125/140/125 77/80/77 
f 77/80/77 125/140/125 126/141/126 
f 77/80/77 126/141/126 78/82/78 
f 78/82/78 126/141/126 127/142/127 
f 78/82/78 127/142/127 79/84/79 
f 74/87/74 122/143/122 128/144/128 
f 74/87/74 128/144/128 80/88/80 
f 80/88/80 128/144/128 129/145/129 
f 80/88/80 129/145/129 81/90/81 
f 81/90/81 129/145/129 130/146/130 
f 81/90/81 130/146/130 82/92/82 
f 75/147/75 123/190/123 131/148/131 
f 75/147/75 131/148/131 83/95/83 
f 83/95/83 131/148/131 132/149/132 
f 83/95/83 132/149/132 84/97/84 
f 84/97/84 132/149/132 133/150/133 
f 84/97/84 133/150/133 85/99/85 
f 76/102/76 124/151/124 134/152/134 
f 76/102/76 134/152/134 86/103/86 
f 86/103/86 134/152/134 135/153/135 
f 86/103/86 135/153/135 87/105/87 
f 87/105/87 135/153/135 136/154/136 
f 87/105/87 136/154/136 88/107/88 
f 82/155/82 130/198/130 123/156/123 
f 82/155/82 123/156/123 75/110/75 
f 85/99/85 133/150/133 124/151/124 
f 85/99/85 124/151/124 76/102/76 
f 101/157/101 105/179/105 109/158/109 
f 101/157/101 109/158/109 89/3/89 
f 89/3/89 109/158/109 110/159/110 
f 89/3/89 110/159/110 90/11/90 
f 90/11/90 110/159/110 111/136/111 
f 90/11/90 111/136/111 91/14/91 
f 102/18/102 106/135/106 112/160/112 
f 102/18/102 112/160/112 92/19/92 
f 92/19/92 112/160/112 113/161/113 
f 92/19/92 113/161/113 93/27/93 
f 93/27/93 113/161/113 114/162/114 
f 93/27/93 114/162/114 94/31/94 
f 103/163/103 107/180/107 115/164/115 
f 103/163/103 115/164/115 95/36/95 
f 95/36/95 115/164/115 116/165/116 
f 95/36/95 116/165/116 96/43/96 
f 96/43/96 116/165/116 117/166/117 
f 96/43/96 117/166/117 97/47/97 
f 104/52/104 108/167/108 118/168/118 
f 104/52/104 118/168/118 98/53/98 
f 98/53/98 118/168/118 119/169/119 
f 98/53/98 119/169/119 99/60/99 
f 99/60/99 119/169/119 120/170/120 
f 99/60/99 120/170/120 100/64/100 
f 94/171/94 114/181/114 107/172/107 
f 94/171/94 107/172/107 103/67/103 
f 97/47/97 117/166/117 108/167/108 
f 97/47/97 108/167/108 104/52/104 
f 101/173/101 1/174/1 31/175/31 
f 101/173/101 31/175/31 100/176/100 
f 102/18/102 7/17/7 34/177/34 
f 102/18/102 34/177/34 91/14/91 
f 105/178/105 101/173/101 100/176/100 
f 105/178/105 100/176/100 120/134/120 
f 106/135/106 102/18/102 91/14/91 
f 106/135/106 91/14/91 111/136/111 
f 105/179/105 69/117/69 57/118/57 
f 105/179/105 57/118/57 109/158/109 
f 109/158/109 57/118/57 58/119/58 
f 109/158/109 58/119/58 110/159/110 
f 110/159/110 58/119/58 59/116/59 
f 110/159/110 59/116/59 111/136/111 
f 106/135/106 70/115/70 60/120/60 
f 106/135/106 60/120/60 112/160/112 
f 112/160/112 60/120/60 61/121/61 
f 112/160/112 61/121/61 113/161/113 
f 113/161/113 61/121/61 62/122/62 
f 113/161/113 62/122/62 114/162/114 
f 107/180/107 71/123/71 63/124/63 
f 107/180/107 63/124/63 115/164/115 
f 115/164/115 63/124/63 64/125/64 
f 115/164/115 64/125/64 116/165/116 
f 116/165/116 64/125/64 65/126/65 
f 116/165/116 65/126/65 117/166/117 
f 108/167/108 72/127/72 66/128/66 
f 108/167/108 66/128/66 118/168/118 
f 118/168/118 66/128/66 67/129/67 
f 118/168/118 67/129/67 119/169/119 
f 119/169/119 67/129/67 68/130/68 
f 119/169/119 68/130/68 120/170/120 
f 114/181/114 62/131/62 71/132/71 
f 114/181/114 71/132/71 107/172/107 
f 117/166/117 65/126/65 72/127/72 
f 117/166/117 72/127/72 108/167/108 
f 121/182/121 73/137/73 88/138/88 
f 121/182/121 88/138/88 136/183/136 
f 122/143/122 74/87/74 79/84/79 
f 122/143/122 79/84/79 127/142/127 
f 121/184/121 137/201/137 141/185/141 
f 121/184/121 141/185/141 125/140/125 
f 125/140/125 141/185/141 142/186/142 
f 125/140/125 142/186/142 126/141/126 
f 126/141/126 142/186/142 143/76/143 
f 126/141/126 143/76/143 127/142/127 
f 122/143/122 138/75/138 144/187/144 
f 122/143/122 144/187/144 128/144/128 
f 128/144/128 144/187/144 145/188/145 
f 128/144/128 145/188/145 129/145/129 
f 129/145/129 145/188/145 146/189/146 
f 129/145/129 146/189/146 130/146/130 
f 123/190/123 139/209/139 147/191/147 
f 123/190/123 147/191/147 131/148/131 
f 131/148/131 147/191/147 148/192/148 
f 131/148/131 148/192/148 132/149/132 
f 132/149/132 148/192/148 149/193/149 
f 132/149/132 149/193/149 133/150/133 
f 124/151/124 140/194/140 150/195/150 
f 124/151/124 150/195/150 134/152/134 
f 134/152/134 150/195/150 151/196/151 
f 134/152/134 151/196/151 135/153/135 
f 135/153/135 151/196/151 152/197/152 
f 135/153/135 152/197/152 136/154/136 
f 130/198/130 146/217/146 139/199/139 
f 130/198/130 139/199/139 123/156/123 
f 133/150/133 149/193/149 140/194/140 
f 133/150/133 140/194/140 124/151/124 
f 137/200/137 121/182/121 136/183/136 
f 137/200/137 136/183/136 152/71/152 
f 138/75/138 122/143/122 127/142/127 
f 138/75/138 127/142/127 143/76/143 
f 137/201/137 2/202/2 4/203/4 
f 137/201/137 4/203/4 141/185/141 
f 141/185/141 4/203/4 6/204/6 
f 141/185/141 6/204/6 142/186/142 
f 142/186/142 6/204/6 33/205/33 
f 142/186/142 33/205/33 143/76/143 
f 138/75/138 8/74/8 10/206/10 
f 138/75/138 10/206/10 144/187/144 
f 144/187/144 10/206/10 12/207/12 
f 144/187/144 12/207/12 145/188/145 
f 145/188/145 12/207/12 14/208/14 
f 145/188/145 14/208/14 146/189/146 
f 139/209/139 27/210/27 16/211/16 
f 139/209/139 16/211/16 147/191/147 
f 147/191/147 16/211/16 18/212/18 
f 147/191/147 18/212/18 148/192/148 
f 148/192/148 18/212/18 20/213/20 
f 148/192/148 20/213/20 149/193/149 
f 140/194/140 37/220/37 22/214/22 
f 140/194/140 22/214/22 150/195/150 
f 150/195/150 22/214/22 24/215/24 
f 150/195/150 24/215/24 151/196/151 
f 151/196/151 24/215/24 32/216/32 
f 151/196/151 32/216/32 152/197/152 
f 146/217/146 14/218/14 27/219/27 
f 146/217/146 27/219/27 139/199/139 
f 149/193/149 20/213/20 37/220/37 
f 149/193/149 37/220/37 140/194/140 
