o Empty_lowpoly.obj
v 0.227500 0.250000 -0.147500
v 0.227500 0.000000 -0.147500
v 0.000000 -0.000000 -0.147500
v 0.000000 0.250000 -0.147500
v 0.227500 0.000000 0.147500
v 0.227500 0.250000 0.147500
v 0.000000 0.250000 0.147500
v 0.000000 -0.000000 0.147500
v 0.000000 -0.000000 0.000000
v 0.227500 0.000000 0.000000
v 0.227500 0.250000 0.000000
v 0.222500 0.250000 0.000000
v 0.222500 0.250000 0.142500
v 0.000000 0.250000 -0.142500
v 0.222500 0.250000 -0.142500
v 0.000000 0.011250 -0.142500
v 0.222500 0.011250 -0.142500
v 0.222500 0.011250 0.142500
v 0.222500 0.011250 0.000000
v 0.000000 0.011250 0.000000
v 0.000000 0.011250 0.142500
v 0.000000 0.250000 0.142500
v -0.227500 0.250000 -0.147500
v -0.227500 0.000000 -0.147500
v -0.227500 0.000000 0.147500
v -0.227500 0.250000 0.147500
v -0.227500 0.000000 0.000000
v -0.227500 0.250000 0.000000
v -0.222500 0.250000 0.000000
v -0.222500 0.250000 0.142500
v -0.222500 0.250000 -0.142500
v -0.222500 0.011250 -0.142500
v -0.222500 0.011250 0.142500
v -0.222500 0.011250 0.000000
vn 0.408248 0.816497 -0.408248
vn 0.577350 -0.577350 -0.577350
vn 0.000000 -0.707107 -0.707107
vn 0.000000 0.707107 -0.707107
vn 0.577350 -0.577350 0.577350
vn 0.408248 0.816497 0.408248
vn 0.000000 0.707107 0.707107
vn 0.000000 -0.707107 0.707107
vn 0.000000 -1.000000 0.000000
vn 0.707107 -0.707107 0.000000
vn 0.707107 0.707107 0.000000
vn -0.894427 0.447214 0.000000
vn -0.235702 0.942809 -0.235702
vn 0.000000 0.447214 0.894427
vn -0.235702 0.942809 0.235702
vn 0.000000 0.707107 0.707107
vn -0.577350 0.577350 0.577350
vn -0.577350 0.577350 -0.577350
vn -0.707107 0.707107 0.000000
vn 0.000000 1.000000 0.000000
vn 0.000000 0.707107 -0.707107
vn 0.000000 0.447214 -0.894427
vn -0.408248 0.816497 -0.408248
vn -0.577350 -0.577350 -0.577350
vn -0.577350 -0.577350 0.577350
vn -0.408248 0.816497 0.408248
vn -0.707107 -0.707107 0.000000
vn -0.707107 0.707107 0.000000
vn 0.894427 0.447214 0.000000
vn 0.235702 0.942809 -0.235702
vn 0.235702 0.942809 0.235702
vn 0.577350 0.577350 0.577350
vn 0.577350 0.577350 -0.577350
vn 0.707107 0.707107 0.000000
vt 0.008426 0.427567
vt 0.008426 0.217932
vt 0.238793 0.217932
vt 0.238793 0.427567
vt 0.485807 0.427567
vt 0.255439 0.427567
vt 0.255439 0.217932
vt 0.485807 0.217932
vt 0.493237 0.427567
vt 0.493237 0.217932
vt 0.629154 0.217932
vt 0.629154 0.427567
vt 0.266929 0.579856
vt 0.262322 0.579856
vt 0.262322 0.448546
vt 0.266929 0.443939
vt 0.243401 0.217932
vt 0.243401 0.422960
vt 0.772502 0.213325
vt 0.992503 0.213325
vt 0.992503 0.418353
vt 0.772502 0.418353
vt 0.453799 0.730473
vt 0.453799 0.861782
vt 0.248772 0.861782
vt 0.248772 0.730473
vt 0.250831 0.422960
vt 0.250831 0.217932
vt 0.761680 0.717165
vt 0.761680 0.512138
vt 0.981682 0.512138
vt 0.981682 0.717165
vt 0.765072 0.217932
vt 0.765072 0.427567
vt 0.453799 0.993092
vt 0.248772 0.993092
vt 0.266929 0.715773
vt 0.262322 0.711165
vt 0.497297 0.443939
vt 0.497297 0.579856
vt 0.519763 0.853537
vt 0.739764 0.853537
vt 0.739764 0.984847
vt 0.519763 0.984847
vt 0.497297 0.715773
vt 0.519763 0.722227
vt 0.739764 0.722227
vt 0.008426 0.008298
vt 0.238793 0.008298
vt 0.255439 0.008298
vt 0.485807 0.008298
vt 0.493237 0.008298
vt 0.629154 0.008298
vt 0.238692 0.579856
vt 0.238574 0.443939
vt 0.243185 0.448542
vt 0.243299 0.579852
vt 0.243401 0.012905
vt 0.772502 0.008298
vt 0.992503 0.008298
vt 0.043744 0.861782
vt 0.043744 0.730473
vt 0.250831 0.012905
vt 0.981682 0.922193
vt 0.761680 0.922193
vt 0.765072 0.008298
vt 0.043744 0.993092
vt 0.243414 0.711161
vt 0.238810 0.715773
vt 0.008206 0.444139
vt 0.008324 0.580056
vt 0.739666 0.444027
vt 0.739666 0.575337
vt 0.519664 0.575337
vt 0.519664 0.444027
vt 0.008442 0.715973
vt 0.739666 0.706647
vt 0.519664 0.706647
g L_Bottom_Empty
f 2/1/2 3/2/3 4/3/4 
f 4/3/4 1/4/1 2/1/2 
f 5/5/5 6/6/6 7/7/7 
f 5/5/5 7/7/7 8/8/8 
f 5/9/5 8/10/8 9/11/9 
f 5/9/5 9/11/9 10/12/10 
f 11/13/11 12/14/12 13/15/13 
f 13/15/13 6/16/6 11/13/11 
f 4/3/4 14/17/14 15/18/15 
f 15/18/15 1/4/1 4/3/4 
f 14/19/14 16/20/16 17/21/17 
f 17/21/17 15/22/15 14/19/14 
f 18/23/18 19/24/19 20/25/20 
f 20/25/20 21/26/21 18/23/18 
f 7/7/7 6/6/6 13/27/13 
f 7/7/7 13/27/13 22/28/22 
f 22/29/22 13/30/13 18/31/18 
f 22/29/22 18/31/18 21/32/21 
f 9/11/9 3/33/3 2/34/2 
f 9/11/9 2/34/2 10/12/10 
f 17/35/17 16/36/16 20/25/20 
f 20/25/20 19/24/19 17/35/17 
f 11/13/11 1/37/1 15/38/15 
f 11/13/11 15/38/15 12/14/12 
f 11/13/11 6/16/6 5/39/5 
f 11/13/11 5/39/5 10/40/10 
f 12/41/12 19/42/19 18/43/18 
f 18/43/18 13/44/13 12/41/12 
f 11/13/11 10/40/10 2/45/2 
f 2/45/2 1/37/1 11/13/11 
f 12/41/12 15/46/15 17/47/17 
f 12/41/12 17/47/17 19/42/19 
f 24/48/24 23/49/23 4/3/4 
f 4/3/4 3/2/3 24/48/24 
f 7/7/7 26/50/26 25/51/25 
f 8/8/8 7/7/7 25/51/25 
f 9/11/9 8/10/8 25/52/25 
f 27/53/27 9/11/9 25/52/25 
f 28/54/28 26/55/26 30/56/30 
f 30/56/30 29/57/29 28/54/28 
f 4/3/4 23/49/23 31/58/31 
f 31/58/31 14/17/14 4/3/4 
f 14/19/14 31/59/31 32/60/32 
f 32/60/32 16/20/16 14/19/14 
f 20/25/20 34/61/34 33/62/33 
f 33/62/33 21/26/21 20/25/20 
f 30/63/30 26/50/26 7/7/7 
f 22/28/22 30/63/30 7/7/7 
f 33/64/33 30/65/30 22/29/22 
f 21/32/21 33/64/33 22/29/22 
f 24/66/24 3/33/3 9/11/9 
f 27/53/27 24/66/24 9/11/9 
f 20/25/20 16/36/16 32/67/32 
f 32/67/32 34/61/34 20/25/20 
f 31/68/31 23/69/23 28/54/28 
f 29/57/29 31/68/31 28/54/28 
f 25/70/25 26/55/26 28/54/28 
f 28/54/28 27/71/27 25/70/25 
f 33/72/33 34/73/34 29/74/29 
f 33/72/33 29/74/29 30/75/30 
f 24/76/24 27/71/27 28/54/28 
f 24/76/24 28/54/28 23/69/23 
f 32/77/32 31/78/31 29/74/29 
f 29/74/29 34/73/34 32/77/32 
